%
M48
M72
T01C0.0236
T02C0.0394
T03C0.0400
%
T01
X2119Y2315
X5642Y1922
X7119Y1922
X8989Y1823
X10563Y2630
X11548Y3004
X9205Y4874
X9205Y6056
X7040Y6902
X6193Y7158
X5426Y7158
X4087Y6843
X2119Y7630
X4461Y8772
X2119Y10386
X5268Y11764
X7237Y13142
X8811Y13142
X11613Y12577
X12670Y12985
X11567Y13930
X12552Y15681
X15111Y13930
X16036Y12591
X15957Y12020
X15898Y11134
X17099Y10327
X18398Y9874
X19382Y9619
X20111Y9756
X20859Y9737
X21804Y9205
X22670Y9205
X24087Y9599
X24894Y9993
X24579Y10681
X27315Y12020
X26981Y12748
X26134Y13536
X26134Y14323
X23772Y14323
X23024Y12709
X20859Y13044
X18457Y13142
X13851Y10583
X15347Y8811
X13142Y6430
X13615Y5347
X14087Y5130
X15701Y3300
X16292Y3300
X15209Y2611
X17138Y4244
X18260Y2906
X18260Y2040
X19048Y2040
X19363Y2847
X22985Y4874
X24953Y5248
X25406Y6311
X24166Y7807
X25052Y8516
X25426Y8024
X25977Y8260
X22906Y7453
X22591Y8162
X22040Y7807
X20819Y7197
X20819Y6036
X18811Y6016
X10918Y8733
X9776Y7650
X9067Y7847
X7591Y7945
X7591Y8654
X7473Y9441
X8024Y10386
X9205Y10780
X9993Y10977
X10741Y10977
X8418Y15111
X8418Y17079
X4087Y14638
X3300Y14638
X6902Y5898
X6902Y5170
T02
X7130Y16201
X6130Y16201
X5130Y16201
X4130Y16201
X4130Y17201
X5130Y17201
X6130Y17201
X7130Y17201
X15996Y17241
X16996Y17241
X17996Y17241
X18996Y17241
X19996Y17241
X20996Y17241
X21996Y17241
X22996Y17241
X23996Y17241
X24996Y17241
X25996Y17241
X26996Y17241
X27996Y17241
X27996Y16241
X26996Y16241
X25996Y16241
X24996Y16241
X23996Y16241
X22996Y16241
X21996Y16241
X20996Y16241
X19996Y16241
X18996Y16241
X17996Y16241
X16996Y16241
X15996Y16241
T03
X12961Y16764
X11961Y16764
X10961Y16764
M30
