G75*
G70*
%OFA0B0*%
%FSLAX24Y24*%
%IPPOS*%
%LPD*%
%AMOC8*
5,1,8,0,0,1.08239X$1,22.5*
%
%ADD10C,0.0600*%
%ADD11R,0.0594X0.0594*%
%ADD12C,0.0660*%
%ADD13C,0.0594*%
%ADD14C,0.0100*%
%ADD15C,0.0436*%
%ADD16C,0.0160*%
D10*
X010961Y016464D02*
X010961Y017064D01*
X011961Y017064D02*
X011961Y016464D01*
X012961Y016464D02*
X012961Y017064D01*
D11*
X015996Y016241D03*
X004130Y017201D03*
D12*
X015996Y017241D03*
X017996Y017241D03*
D13*
X016996Y017241D03*
X016996Y016241D03*
X017996Y016241D03*
X018996Y016241D03*
X019996Y016241D03*
X020996Y016241D03*
X021996Y016241D03*
X022996Y016241D03*
X023996Y016241D03*
X024996Y016241D03*
X025996Y016241D03*
X026996Y016241D03*
X027996Y016241D03*
X027996Y017241D03*
X026996Y017241D03*
X025996Y017241D03*
X024996Y017241D03*
X023996Y017241D03*
X022996Y017241D03*
X021996Y017241D03*
X020996Y017241D03*
X019996Y017241D03*
X018996Y017241D03*
X007130Y017201D03*
X006130Y017201D03*
X005130Y017201D03*
X005130Y016201D03*
X004130Y016201D03*
X006130Y016201D03*
X007130Y016201D03*
D14*
X000300Y019272D02*
X000300Y000257D01*
X030720Y000257D01*
X030720Y019272D01*
X000300Y019272D01*
X000300Y019259D02*
X030720Y019259D01*
X030720Y019161D02*
X000300Y019161D01*
X000300Y019062D02*
X030720Y019062D01*
X030720Y018964D02*
X000300Y018964D01*
X000300Y018865D02*
X030720Y018865D01*
X030720Y018767D02*
X000300Y018767D01*
X000300Y018668D02*
X030720Y018668D01*
X030720Y018570D02*
X000300Y018570D01*
X000300Y018471D02*
X030720Y018471D01*
X030720Y018373D02*
X000300Y018373D01*
X000300Y018274D02*
X030720Y018274D01*
X030720Y018176D02*
X000300Y018176D01*
X000300Y018077D02*
X030720Y018077D01*
X030720Y017979D02*
X000300Y017979D01*
X000300Y017880D02*
X030720Y017880D01*
X030720Y017782D02*
X000300Y017782D01*
X000300Y017683D02*
X015866Y017683D01*
X015905Y017699D02*
X015737Y017629D01*
X015608Y017500D01*
X015538Y017332D01*
X015538Y017149D01*
X015608Y016981D01*
X015737Y016852D01*
X015905Y016782D01*
X016088Y016782D01*
X016256Y016852D01*
X016385Y016981D01*
X016455Y017149D01*
X016455Y017332D01*
X016385Y017500D01*
X016256Y017629D01*
X016088Y017699D01*
X015905Y017699D01*
X016127Y017683D02*
X017866Y017683D01*
X017905Y017699D02*
X017737Y017629D01*
X017608Y017500D01*
X017538Y017332D01*
X017538Y017149D01*
X017608Y016981D01*
X017737Y016852D01*
X017905Y016782D01*
X018088Y016782D01*
X018256Y016852D01*
X018385Y016981D01*
X018455Y017149D01*
X018455Y017332D01*
X018385Y017500D01*
X018256Y017629D01*
X018088Y017699D01*
X017905Y017699D01*
X018127Y017683D02*
X021934Y017683D01*
X021948Y017683D02*
X022045Y017683D01*
X022045Y017685D02*
X022101Y017676D01*
X022168Y017655D01*
X022231Y017623D01*
X022288Y017581D01*
X022337Y017532D01*
X022379Y017475D01*
X022411Y017412D01*
X022432Y017345D01*
X022441Y017289D01*
X022571Y017289D01*
X022571Y017325D02*
X022571Y017156D01*
X022636Y016999D01*
X022755Y016880D01*
X022912Y016815D01*
X023081Y016815D01*
X023238Y016880D01*
X023357Y016999D01*
X023422Y017156D01*
X023422Y017325D01*
X023357Y017482D01*
X023238Y017601D01*
X023081Y017666D01*
X022912Y017666D01*
X022755Y017601D01*
X022636Y017482D01*
X022571Y017325D01*
X022597Y017388D02*
X022419Y017388D01*
X022441Y017289D02*
X022045Y017289D01*
X022045Y017192D01*
X022441Y017192D01*
X022432Y017136D01*
X022411Y017069D01*
X022379Y017006D01*
X022337Y016949D01*
X022288Y016900D01*
X022231Y016858D01*
X022168Y016826D01*
X022101Y016805D01*
X022045Y016796D01*
X022045Y017192D01*
X021948Y017192D01*
X021948Y016796D01*
X021892Y016805D01*
X021825Y016826D01*
X021762Y016858D01*
X021705Y016900D01*
X021656Y016949D01*
X021614Y017006D01*
X021582Y017069D01*
X021561Y017136D01*
X021552Y017192D01*
X021948Y017192D01*
X021948Y017289D01*
X021552Y017289D01*
X021422Y017289D01*
X021422Y017325D02*
X021357Y017482D01*
X021238Y017601D01*
X021081Y017666D01*
X020912Y017666D01*
X020755Y017601D01*
X020636Y017482D01*
X020571Y017325D01*
X020571Y017156D01*
X020636Y016999D01*
X020755Y016880D01*
X020912Y016815D01*
X021081Y016815D01*
X021238Y016880D01*
X021357Y016999D01*
X021422Y017156D01*
X021422Y017325D01*
X021396Y017388D02*
X021574Y017388D01*
X021582Y017412D02*
X021561Y017345D01*
X021552Y017289D01*
X021552Y017191D02*
X021422Y017191D01*
X021396Y017092D02*
X021575Y017092D01*
X021624Y016994D02*
X021351Y016994D01*
X021253Y016895D02*
X021712Y016895D01*
X021948Y016895D02*
X022045Y016895D01*
X022045Y016797D02*
X021948Y016797D01*
X021943Y016797D02*
X018123Y016797D01*
X018081Y016666D02*
X018238Y016601D01*
X018357Y016482D01*
X018422Y016325D01*
X018422Y016156D01*
X018357Y015999D01*
X018238Y015880D01*
X018081Y015815D01*
X017912Y015815D01*
X017755Y015880D01*
X017636Y015999D01*
X017571Y016156D01*
X017571Y016325D01*
X017636Y016482D01*
X017755Y016601D01*
X017912Y016666D01*
X018081Y016666D01*
X018239Y016600D02*
X018754Y016600D01*
X018755Y016601D02*
X018636Y016482D01*
X018571Y016325D01*
X018571Y016156D01*
X018636Y015999D01*
X018755Y015880D01*
X018912Y015815D01*
X019081Y015815D01*
X019238Y015880D01*
X019357Y015999D01*
X019422Y016156D01*
X019422Y016325D01*
X019357Y016482D01*
X019238Y016601D01*
X019081Y016666D01*
X018912Y016666D01*
X018755Y016601D01*
X018655Y016501D02*
X018338Y016501D01*
X018390Y016403D02*
X018603Y016403D01*
X018571Y016304D02*
X018422Y016304D01*
X018422Y016206D02*
X018571Y016206D01*
X018591Y016107D02*
X018402Y016107D01*
X018361Y016009D02*
X018632Y016009D01*
X018725Y015910D02*
X018268Y015910D01*
X017725Y015910D02*
X017268Y015910D01*
X017238Y015880D02*
X017357Y015999D01*
X017422Y016156D01*
X017422Y016325D01*
X017357Y016482D01*
X017238Y016601D01*
X017081Y016666D01*
X016912Y016666D01*
X016755Y016601D01*
X016636Y016482D01*
X016571Y016325D01*
X016571Y016156D01*
X016636Y015999D01*
X016755Y015880D01*
X016912Y015815D01*
X017081Y015815D01*
X017238Y015880D01*
X017361Y016009D02*
X017632Y016009D01*
X017591Y016107D02*
X017402Y016107D01*
X017422Y016206D02*
X017571Y016206D01*
X017571Y016304D02*
X017422Y016304D01*
X017390Y016403D02*
X017603Y016403D01*
X017655Y016501D02*
X017338Y016501D01*
X017239Y016600D02*
X017754Y016600D01*
X017870Y016797D02*
X016123Y016797D01*
X016300Y016895D02*
X016740Y016895D01*
X016755Y016880D02*
X016912Y016815D01*
X017081Y016815D01*
X017238Y016880D01*
X017357Y016999D01*
X017422Y017156D01*
X017422Y017325D01*
X017357Y017482D01*
X017238Y017601D01*
X017081Y017666D01*
X016912Y017666D01*
X016755Y017601D01*
X016636Y017482D01*
X016571Y017325D01*
X016571Y017156D01*
X016636Y016999D01*
X016755Y016880D01*
X016642Y016994D02*
X016391Y016994D01*
X016431Y017092D02*
X016597Y017092D01*
X016571Y017191D02*
X016455Y017191D01*
X016455Y017289D02*
X016571Y017289D01*
X016597Y017388D02*
X016432Y017388D01*
X016391Y017486D02*
X016640Y017486D01*
X016739Y017585D02*
X016301Y017585D01*
X015692Y017585D02*
X007317Y017585D01*
X007371Y017562D02*
X007215Y017627D01*
X007046Y017627D01*
X006889Y017562D01*
X006770Y017442D01*
X006705Y017286D01*
X006705Y017117D01*
X006770Y016960D01*
X006889Y016840D01*
X007046Y016776D01*
X007215Y016776D01*
X007371Y016840D01*
X007491Y016960D01*
X007556Y017117D01*
X007556Y017286D01*
X007491Y017442D01*
X007371Y017562D01*
X007447Y017486D02*
X010803Y017486D01*
X010788Y017481D02*
X010725Y017449D01*
X010668Y017407D01*
X010618Y017357D01*
X010576Y017300D01*
X010544Y017237D01*
X010522Y017170D01*
X010511Y017100D01*
X010511Y016814D01*
X010911Y016814D01*
X010911Y016714D01*
X011011Y016714D01*
X011011Y016016D01*
X011066Y016025D01*
X011134Y016047D01*
X011197Y016079D01*
X011254Y016121D01*
X011304Y016171D01*
X011346Y016228D01*
X011378Y016291D01*
X011400Y016359D01*
X011411Y016429D01*
X011411Y016714D01*
X011011Y016714D01*
X011011Y016814D01*
X011411Y016814D01*
X011411Y017100D01*
X011400Y017170D01*
X011378Y017237D01*
X011346Y017300D01*
X011304Y017357D01*
X011254Y017407D01*
X011197Y017449D01*
X011134Y017481D01*
X011066Y017503D01*
X011011Y017512D01*
X011011Y016814D01*
X010911Y016814D01*
X010911Y017512D01*
X010856Y017503D01*
X010788Y017481D01*
X010911Y017486D02*
X011011Y017486D01*
X011011Y017388D02*
X010911Y017388D01*
X010911Y017289D02*
X011011Y017289D01*
X011011Y017191D02*
X010911Y017191D01*
X010911Y017092D02*
X011011Y017092D01*
X011011Y016994D02*
X010911Y016994D01*
X010911Y016895D02*
X011011Y016895D01*
X011011Y016797D02*
X011532Y016797D01*
X011532Y016895D02*
X011411Y016895D01*
X011411Y016994D02*
X011532Y016994D01*
X011532Y017092D02*
X011411Y017092D01*
X011393Y017191D02*
X011549Y017191D01*
X011532Y017149D02*
X011598Y017307D01*
X011718Y017428D01*
X011876Y017493D01*
X012046Y017493D01*
X012204Y017428D01*
X012324Y017307D01*
X012390Y017149D01*
X012390Y016379D01*
X012324Y016221D01*
X012204Y016101D01*
X012046Y016035D01*
X011876Y016035D01*
X011718Y016101D01*
X011598Y016221D01*
X011532Y016379D01*
X011532Y017149D01*
X011590Y017289D02*
X011351Y017289D01*
X011274Y017388D02*
X011678Y017388D01*
X011859Y017486D02*
X011119Y017486D01*
X010648Y017388D02*
X008580Y017388D01*
X008614Y017373D02*
X008487Y017426D01*
X008349Y017426D01*
X008221Y017373D01*
X008124Y017276D01*
X008071Y017148D01*
X008071Y017010D01*
X008124Y016883D01*
X008209Y016797D01*
X008209Y015392D01*
X008124Y015307D01*
X008071Y015180D01*
X008071Y015042D01*
X008124Y014914D01*
X008221Y014817D01*
X008349Y014764D01*
X008487Y014764D01*
X008614Y014817D01*
X008712Y014914D01*
X008765Y015042D01*
X008765Y015180D01*
X008712Y015307D01*
X008626Y015392D01*
X008626Y016797D01*
X008712Y016883D01*
X008765Y017010D01*
X008765Y017148D01*
X008712Y017276D01*
X008614Y017373D01*
X008698Y017289D02*
X010571Y017289D01*
X010529Y017191D02*
X008747Y017191D01*
X008765Y017092D02*
X010511Y017092D01*
X010511Y016994D02*
X008758Y016994D01*
X008717Y016895D02*
X010511Y016895D01*
X010511Y016714D02*
X010511Y016429D01*
X010522Y016359D01*
X010544Y016291D01*
X010576Y016228D01*
X010618Y016171D01*
X010668Y016121D01*
X010725Y016079D01*
X010788Y016047D01*
X010856Y016025D01*
X010911Y016016D01*
X010911Y016714D01*
X010511Y016714D01*
X010511Y016698D02*
X008626Y016698D01*
X008626Y016600D02*
X010511Y016600D01*
X010511Y016501D02*
X008626Y016501D01*
X008626Y016403D02*
X010515Y016403D01*
X010540Y016304D02*
X008626Y016304D01*
X008626Y016206D02*
X010593Y016206D01*
X010687Y016107D02*
X008626Y016107D01*
X008626Y016009D02*
X012435Y016009D01*
X012483Y016028D02*
X012355Y015976D01*
X012258Y015878D01*
X012205Y015750D01*
X012205Y015613D01*
X012212Y015595D01*
X011493Y014876D01*
X011389Y014771D01*
X011389Y014231D01*
X011371Y014224D01*
X011273Y014126D01*
X011266Y014108D01*
X009525Y014108D01*
X008898Y013482D01*
X008880Y013489D01*
X008742Y013489D01*
X008615Y013436D01*
X008517Y013339D01*
X008510Y013321D01*
X007538Y013321D01*
X007531Y013339D01*
X007433Y013436D01*
X007306Y013489D01*
X007168Y013489D01*
X007040Y013436D01*
X006943Y013339D01*
X006890Y013211D01*
X006890Y013073D01*
X006943Y012946D01*
X007040Y012848D01*
X007168Y012795D01*
X007306Y012795D01*
X007433Y012848D01*
X007531Y012946D01*
X007538Y012963D01*
X008510Y012963D01*
X008517Y012946D01*
X008615Y012848D01*
X008742Y012795D01*
X008880Y012795D01*
X009008Y012848D01*
X009105Y012946D01*
X009158Y013073D01*
X009158Y013211D01*
X009151Y013229D01*
X009673Y013751D01*
X011266Y013751D01*
X011273Y013733D01*
X011371Y013635D01*
X011498Y013583D01*
X011636Y013583D01*
X011764Y013635D01*
X011861Y013733D01*
X011914Y013861D01*
X011914Y013999D01*
X011861Y014126D01*
X011764Y014224D01*
X011746Y014231D01*
X011746Y014623D01*
X012465Y015342D01*
X012483Y015335D01*
X012621Y015335D01*
X012748Y015387D01*
X012846Y015485D01*
X012853Y015503D01*
X013285Y015503D01*
X014771Y014016D01*
X014764Y013999D01*
X014764Y013861D01*
X014771Y013843D01*
X014341Y013413D01*
X014341Y010992D01*
X014137Y010787D01*
X014047Y010877D01*
X013920Y010930D01*
X013782Y010930D01*
X013654Y010877D01*
X013557Y010780D01*
X013504Y010652D01*
X013504Y010514D01*
X013557Y010387D01*
X013654Y010289D01*
X013782Y010236D01*
X013920Y010236D01*
X014047Y010289D01*
X014145Y010387D01*
X014152Y010404D01*
X014259Y010404D01*
X014364Y010509D01*
X014699Y010844D01*
X014699Y013265D01*
X015024Y013590D01*
X015042Y013583D01*
X015180Y013583D01*
X015307Y013635D01*
X015405Y013733D01*
X015457Y013861D01*
X015457Y013999D01*
X015405Y014126D01*
X015307Y014224D01*
X015180Y014276D01*
X015042Y014276D01*
X015024Y014269D01*
X013433Y015860D01*
X012853Y015860D01*
X012846Y015878D01*
X012748Y015976D01*
X012621Y016028D01*
X012483Y016028D01*
X012668Y016009D02*
X015571Y016009D01*
X015571Y016107D02*
X013210Y016107D01*
X013204Y016101D02*
X013324Y016221D01*
X013390Y016379D01*
X013390Y017149D01*
X013324Y017307D01*
X013204Y017428D01*
X013046Y017493D01*
X012876Y017493D01*
X012718Y017428D01*
X012598Y017307D01*
X012532Y017149D01*
X012532Y016379D01*
X012598Y016221D01*
X012718Y016101D01*
X012876Y016035D01*
X013046Y016035D01*
X013204Y016101D01*
X013309Y016206D02*
X015571Y016206D01*
X015571Y016304D02*
X013359Y016304D01*
X013390Y016403D02*
X015571Y016403D01*
X015571Y016501D02*
X013390Y016501D01*
X013390Y016600D02*
X015580Y016600D01*
X015571Y016591D02*
X015571Y015890D01*
X015646Y015815D01*
X016347Y015815D01*
X016422Y015890D01*
X016422Y016591D01*
X016347Y016666D01*
X015646Y016666D01*
X015571Y016591D01*
X015870Y016797D02*
X013390Y016797D01*
X013390Y016895D02*
X015693Y016895D01*
X015602Y016994D02*
X013390Y016994D01*
X013390Y017092D02*
X015561Y017092D01*
X015538Y017191D02*
X013373Y017191D01*
X013332Y017289D02*
X015538Y017289D01*
X015561Y017388D02*
X013244Y017388D01*
X013063Y017486D02*
X015602Y017486D01*
X016413Y016600D02*
X016754Y016600D01*
X016655Y016501D02*
X016422Y016501D01*
X016422Y016403D02*
X016603Y016403D01*
X016571Y016304D02*
X016422Y016304D01*
X016422Y016206D02*
X016571Y016206D01*
X016591Y016107D02*
X016422Y016107D01*
X016422Y016009D02*
X016632Y016009D01*
X016725Y015910D02*
X016422Y015910D01*
X015571Y015910D02*
X012814Y015910D01*
X012712Y016107D02*
X012210Y016107D01*
X012309Y016206D02*
X012613Y016206D01*
X012563Y016304D02*
X012359Y016304D01*
X012390Y016403D02*
X012532Y016403D01*
X012532Y016501D02*
X012390Y016501D01*
X012390Y016600D02*
X012532Y016600D01*
X012532Y016698D02*
X012390Y016698D01*
X012390Y016797D02*
X012532Y016797D01*
X012532Y016895D02*
X012390Y016895D01*
X012390Y016994D02*
X012532Y016994D01*
X012532Y017092D02*
X012390Y017092D01*
X012373Y017191D02*
X012549Y017191D01*
X012590Y017289D02*
X012332Y017289D01*
X012244Y017388D02*
X012678Y017388D01*
X012859Y017486D02*
X012063Y017486D01*
X011532Y016698D02*
X011411Y016698D01*
X011411Y016600D02*
X011532Y016600D01*
X011532Y016501D02*
X011411Y016501D01*
X011407Y016403D02*
X011532Y016403D01*
X011563Y016304D02*
X011382Y016304D01*
X011329Y016206D02*
X011613Y016206D01*
X011712Y016107D02*
X011235Y016107D01*
X011011Y016107D02*
X010911Y016107D01*
X010911Y016206D02*
X011011Y016206D01*
X011011Y016304D02*
X010911Y016304D01*
X010911Y016403D02*
X011011Y016403D01*
X011011Y016501D02*
X010911Y016501D01*
X010911Y016600D02*
X011011Y016600D01*
X011011Y016698D02*
X010911Y016698D01*
X010911Y016797D02*
X008626Y016797D01*
X008209Y016797D02*
X007266Y016797D01*
X007215Y016627D02*
X007046Y016627D01*
X006889Y016562D01*
X006770Y016442D01*
X006705Y016286D01*
X006705Y016117D01*
X006770Y015960D01*
X006889Y015840D01*
X007046Y015776D01*
X007215Y015776D01*
X007371Y015840D01*
X007491Y015960D01*
X007556Y016117D01*
X007556Y016286D01*
X007491Y016442D01*
X007371Y016562D01*
X007215Y016627D01*
X007281Y016600D02*
X008209Y016600D01*
X008209Y016698D02*
X000300Y016698D01*
X000300Y016600D02*
X003980Y016600D01*
X004046Y016627D02*
X003889Y016562D01*
X003770Y016442D01*
X003705Y016286D01*
X003705Y016117D01*
X003770Y015960D01*
X003889Y015840D01*
X004046Y015776D01*
X004215Y015776D01*
X004371Y015840D01*
X004491Y015960D01*
X004556Y016117D01*
X004556Y016286D01*
X004491Y016442D01*
X004371Y016562D01*
X004215Y016627D01*
X004046Y016627D01*
X004281Y016600D02*
X004980Y016600D01*
X005046Y016627D02*
X004889Y016562D01*
X004770Y016442D01*
X004705Y016286D01*
X004705Y016117D01*
X004770Y015960D01*
X004889Y015840D01*
X005046Y015776D01*
X005215Y015776D01*
X005371Y015840D01*
X005491Y015960D01*
X005556Y016117D01*
X005556Y016286D01*
X005491Y016442D01*
X005371Y016562D01*
X005215Y016627D01*
X005046Y016627D01*
X005046Y016776D02*
X005215Y016776D01*
X005371Y016840D01*
X005491Y016960D01*
X005556Y017117D01*
X005556Y017286D01*
X005491Y017442D01*
X005371Y017562D01*
X005215Y017627D01*
X005046Y017627D01*
X004889Y017562D01*
X004770Y017442D01*
X004705Y017286D01*
X004705Y017117D01*
X004770Y016960D01*
X004889Y016840D01*
X005046Y016776D01*
X004995Y016797D02*
X004501Y016797D01*
X004480Y016776D02*
X004556Y016851D01*
X004556Y017551D01*
X004480Y017627D01*
X003780Y017627D01*
X003705Y017551D01*
X003705Y016851D01*
X003780Y016776D01*
X004480Y016776D01*
X004556Y016895D02*
X004835Y016895D01*
X004756Y016994D02*
X004556Y016994D01*
X004556Y017092D02*
X004715Y017092D01*
X004705Y017191D02*
X004556Y017191D01*
X004556Y017289D02*
X004706Y017289D01*
X004747Y017388D02*
X004556Y017388D01*
X004556Y017486D02*
X004813Y017486D01*
X004944Y017585D02*
X004523Y017585D01*
X005317Y017585D02*
X005944Y017585D01*
X005889Y017562D02*
X005770Y017442D01*
X005705Y017286D01*
X005705Y017117D01*
X005770Y016960D01*
X005889Y016840D01*
X006046Y016776D01*
X006215Y016776D01*
X006371Y016840D01*
X006491Y016960D01*
X006556Y017117D01*
X006556Y017286D01*
X006491Y017442D01*
X006371Y017562D01*
X006215Y017627D01*
X006046Y017627D01*
X005889Y017562D01*
X005813Y017486D02*
X005447Y017486D01*
X005514Y017388D02*
X005747Y017388D01*
X005706Y017289D02*
X005555Y017289D01*
X005556Y017191D02*
X005705Y017191D01*
X005715Y017092D02*
X005546Y017092D01*
X005505Y016994D02*
X005756Y016994D01*
X005835Y016895D02*
X005426Y016895D01*
X005266Y016797D02*
X005995Y016797D01*
X006046Y016627D02*
X005889Y016562D01*
X005770Y016442D01*
X005705Y016286D01*
X005705Y016117D01*
X005770Y015960D01*
X005889Y015840D01*
X006046Y015776D01*
X006215Y015776D01*
X006371Y015840D01*
X006491Y015960D01*
X006556Y016117D01*
X006556Y016286D01*
X006491Y016442D01*
X006371Y016562D01*
X006215Y016627D01*
X006046Y016627D01*
X005980Y016600D02*
X005281Y016600D01*
X005432Y016501D02*
X005828Y016501D01*
X005753Y016403D02*
X005508Y016403D01*
X005548Y016304D02*
X005712Y016304D01*
X005705Y016206D02*
X005556Y016206D01*
X005552Y016107D02*
X005709Y016107D01*
X005749Y016009D02*
X005511Y016009D01*
X005441Y015910D02*
X005820Y015910D01*
X005959Y015812D02*
X005302Y015812D01*
X004959Y015812D02*
X004302Y015812D01*
X004441Y015910D02*
X004820Y015910D01*
X004749Y016009D02*
X004511Y016009D01*
X004552Y016107D02*
X004709Y016107D01*
X004705Y016206D02*
X004556Y016206D01*
X004548Y016304D02*
X004712Y016304D01*
X004753Y016403D02*
X004508Y016403D01*
X004432Y016501D02*
X004828Y016501D01*
X003828Y016501D02*
X000300Y016501D01*
X000300Y016403D02*
X003753Y016403D01*
X003712Y016304D02*
X000300Y016304D01*
X000300Y016206D02*
X003705Y016206D01*
X003709Y016107D02*
X000300Y016107D01*
X000300Y016009D02*
X003749Y016009D01*
X003820Y015910D02*
X000300Y015910D01*
X000300Y015812D02*
X003959Y015812D01*
X004018Y014985D02*
X003891Y014932D01*
X003793Y014835D01*
X003786Y014817D01*
X003601Y014817D01*
X003594Y014835D01*
X003496Y014932D01*
X003369Y014985D01*
X003231Y014985D01*
X003103Y014932D01*
X003006Y014835D01*
X002953Y014707D01*
X002953Y014569D01*
X003006Y014442D01*
X003103Y014344D01*
X003231Y014291D01*
X003369Y014291D01*
X003496Y014344D01*
X003594Y014442D01*
X003601Y014459D01*
X003786Y014459D01*
X003793Y014442D01*
X003891Y014344D01*
X004018Y014291D01*
X004156Y014291D01*
X004283Y014344D01*
X004381Y014442D01*
X004434Y014569D01*
X004434Y014707D01*
X004381Y014835D01*
X004283Y014932D01*
X004156Y014985D01*
X004018Y014985D01*
X003883Y014925D02*
X003503Y014925D01*
X003597Y014827D02*
X003790Y014827D01*
X004087Y014638D02*
X003300Y014638D01*
X002953Y014630D02*
X000300Y014630D01*
X000300Y014728D02*
X002961Y014728D01*
X003002Y014827D02*
X000300Y014827D01*
X000300Y014925D02*
X003096Y014925D01*
X002969Y014531D02*
X000300Y014531D01*
X000300Y014433D02*
X003015Y014433D01*
X003128Y014334D02*
X000300Y014334D01*
X000300Y014236D02*
X011389Y014236D01*
X011389Y014334D02*
X004259Y014334D01*
X004372Y014433D02*
X011389Y014433D01*
X011389Y014531D02*
X004418Y014531D01*
X004434Y014630D02*
X011389Y014630D01*
X011389Y014728D02*
X004425Y014728D01*
X004384Y014827D02*
X008211Y014827D01*
X008119Y014925D02*
X004291Y014925D01*
X003802Y014433D02*
X003584Y014433D01*
X003472Y014334D02*
X003915Y014334D01*
X006302Y015812D02*
X006959Y015812D01*
X006820Y015910D02*
X006441Y015910D01*
X006511Y016009D02*
X006749Y016009D01*
X006709Y016107D02*
X006552Y016107D01*
X006556Y016206D02*
X006705Y016206D01*
X006712Y016304D02*
X006548Y016304D01*
X006508Y016403D02*
X006753Y016403D01*
X006828Y016501D02*
X006432Y016501D01*
X006281Y016600D02*
X006980Y016600D01*
X006995Y016797D02*
X006266Y016797D01*
X006426Y016895D02*
X006835Y016895D01*
X006756Y016994D02*
X006505Y016994D01*
X006546Y017092D02*
X006715Y017092D01*
X006705Y017191D02*
X006556Y017191D01*
X006555Y017289D02*
X006706Y017289D01*
X006747Y017388D02*
X006514Y017388D01*
X006447Y017486D02*
X006813Y017486D01*
X006944Y017585D02*
X006317Y017585D01*
X007514Y017388D02*
X008256Y017388D01*
X008137Y017289D02*
X007555Y017289D01*
X007556Y017191D02*
X008088Y017191D01*
X008071Y017092D02*
X007546Y017092D01*
X007505Y016994D02*
X008078Y016994D01*
X008119Y016895D02*
X007426Y016895D01*
X007432Y016501D02*
X008209Y016501D01*
X008209Y016403D02*
X007508Y016403D01*
X007548Y016304D02*
X008209Y016304D01*
X008209Y016206D02*
X007556Y016206D01*
X007552Y016107D02*
X008209Y016107D01*
X008209Y016009D02*
X007511Y016009D01*
X007441Y015910D02*
X008209Y015910D01*
X008209Y015812D02*
X007302Y015812D01*
X008209Y015713D02*
X000300Y015713D01*
X000300Y015615D02*
X008209Y015615D01*
X008209Y015516D02*
X000300Y015516D01*
X000300Y015418D02*
X008209Y015418D01*
X008136Y015319D02*
X000300Y015319D01*
X000300Y015221D02*
X008088Y015221D01*
X008071Y015122D02*
X000300Y015122D01*
X000300Y015024D02*
X008078Y015024D01*
X008624Y014827D02*
X011444Y014827D01*
X011493Y014876D02*
X011493Y014876D01*
X011542Y014925D02*
X008716Y014925D01*
X008757Y015024D02*
X011641Y015024D01*
X011739Y015122D02*
X008765Y015122D01*
X008748Y015221D02*
X011838Y015221D01*
X011936Y015319D02*
X008700Y015319D01*
X008626Y015418D02*
X012035Y015418D01*
X012133Y015516D02*
X008626Y015516D01*
X008626Y015615D02*
X012205Y015615D01*
X012205Y015713D02*
X008626Y015713D01*
X008626Y015812D02*
X012230Y015812D01*
X012290Y015910D02*
X008626Y015910D01*
X011567Y014697D02*
X012552Y015681D01*
X013359Y015681D01*
X015111Y013930D01*
X014520Y013339D01*
X014520Y010918D01*
X014185Y010583D01*
X013851Y010583D01*
X013504Y010591D02*
X009502Y010591D01*
X009499Y010583D02*
X009552Y010711D01*
X009552Y010849D01*
X009499Y010976D01*
X009402Y011074D01*
X009384Y011081D01*
X009384Y011139D01*
X009850Y011605D01*
X012645Y011605D01*
X013216Y012176D01*
X013321Y012281D01*
X013321Y012586D01*
X013009Y012898D01*
X013017Y012916D01*
X013017Y013054D01*
X012964Y013181D01*
X012866Y013279D01*
X012739Y013331D01*
X012601Y013331D01*
X012473Y013279D01*
X012376Y013181D01*
X012323Y013054D01*
X012323Y012916D01*
X012376Y012788D01*
X012473Y012691D01*
X012601Y012638D01*
X012739Y012638D01*
X012756Y012645D01*
X012963Y012438D01*
X012963Y012429D01*
X012497Y011963D01*
X009853Y011963D01*
X010289Y012398D01*
X011311Y012398D01*
X011319Y012381D01*
X011416Y012283D01*
X011544Y012230D01*
X011682Y012230D01*
X011809Y012283D01*
X011907Y012381D01*
X011959Y012508D01*
X011959Y012646D01*
X011907Y012774D01*
X011809Y012871D01*
X011682Y012924D01*
X011544Y012924D01*
X011416Y012871D01*
X011319Y012774D01*
X011311Y012756D01*
X010141Y012756D01*
X008111Y010726D01*
X008093Y010733D01*
X007955Y010733D01*
X007828Y010680D01*
X007730Y010583D01*
X007677Y010455D01*
X007677Y010317D01*
X007730Y010190D01*
X007828Y010092D01*
X007845Y010085D01*
X007845Y009620D01*
X007774Y009620D01*
X007767Y009638D01*
X007669Y009735D01*
X007542Y009788D01*
X007404Y009788D01*
X007276Y009735D01*
X007179Y009638D01*
X007126Y009510D01*
X007126Y009372D01*
X007179Y009245D01*
X007276Y009147D01*
X007404Y009094D01*
X007542Y009094D01*
X007669Y009147D01*
X007767Y009245D01*
X007774Y009263D01*
X007947Y009263D01*
X007678Y008993D01*
X007660Y009001D01*
X007522Y009001D01*
X007394Y008948D01*
X007297Y008850D01*
X007244Y008723D01*
X007244Y008585D01*
X007297Y008457D01*
X007394Y008360D01*
X007522Y008307D01*
X007660Y008307D01*
X007787Y008360D01*
X007885Y008457D01*
X007938Y008585D01*
X007938Y008723D01*
X007930Y008741D01*
X008216Y009026D01*
X008885Y009026D01*
X008990Y009131D01*
X008990Y010312D01*
X009118Y010440D01*
X009136Y010433D01*
X009274Y010433D01*
X009402Y010486D01*
X009499Y010583D01*
X009543Y010690D02*
X009789Y010690D01*
X009796Y010683D02*
X009924Y010630D01*
X010062Y010630D01*
X010189Y010683D01*
X010287Y010780D01*
X010294Y010798D01*
X010439Y010798D01*
X010447Y010780D01*
X010544Y010683D01*
X010672Y010630D01*
X010810Y010630D01*
X010937Y010683D01*
X011035Y010780D01*
X011087Y010908D01*
X011087Y011046D01*
X011035Y011173D01*
X010937Y011271D01*
X010810Y011324D01*
X010672Y011324D01*
X010544Y011271D01*
X010447Y011173D01*
X010439Y011156D01*
X010294Y011156D01*
X010287Y011173D01*
X010189Y011271D01*
X010062Y011324D01*
X009924Y011324D01*
X009796Y011271D01*
X009698Y011173D01*
X009646Y011046D01*
X009646Y010908D01*
X009698Y010780D01*
X009796Y010683D01*
X009695Y010788D02*
X009552Y010788D01*
X009536Y010887D02*
X009654Y010887D01*
X009646Y010985D02*
X009491Y010985D01*
X009384Y011084D02*
X009661Y011084D01*
X009707Y011182D02*
X009427Y011182D01*
X009525Y011281D02*
X009819Y011281D01*
X009624Y011379D02*
X014341Y011379D01*
X014341Y011281D02*
X010914Y011281D01*
X011026Y011182D02*
X014341Y011182D01*
X014341Y011084D02*
X011072Y011084D01*
X011087Y010985D02*
X014335Y010985D01*
X014236Y010887D02*
X014025Y010887D01*
X014136Y010788D02*
X014138Y010788D01*
X014446Y010591D02*
X016582Y010591D01*
X016484Y010690D02*
X015610Y010690D01*
X015602Y010682D02*
X015643Y010724D01*
X015765Y010814D01*
X015829Y010787D01*
X015967Y010787D01*
X016095Y010840D01*
X016192Y010938D01*
X016245Y011065D01*
X016245Y011203D01*
X016192Y011331D01*
X016095Y011428D01*
X015967Y011481D01*
X015829Y011481D01*
X015702Y011428D01*
X015604Y011331D01*
X015551Y011203D01*
X015551Y011101D01*
X015539Y011092D01*
X015289Y011329D01*
X015289Y012281D01*
X015421Y012412D01*
X015734Y012412D01*
X015742Y012394D01*
X015804Y012332D01*
X015761Y012314D01*
X015663Y012217D01*
X015610Y012089D01*
X015610Y011951D01*
X015663Y011824D01*
X015761Y011726D01*
X015888Y011673D01*
X016026Y011673D01*
X016154Y011726D01*
X016251Y011824D01*
X016258Y011840D01*
X016290Y011808D01*
X016290Y010883D01*
X016759Y010414D01*
X016752Y010396D01*
X016752Y010258D01*
X016805Y010131D01*
X016902Y010033D01*
X017030Y009980D01*
X017168Y009980D01*
X017295Y010033D01*
X017393Y010131D01*
X017446Y010258D01*
X017446Y010396D01*
X017393Y010524D01*
X017295Y010621D01*
X017168Y010674D01*
X017030Y010674D01*
X017012Y010667D01*
X016648Y011031D01*
X016648Y011956D01*
X016543Y012061D01*
X016405Y012199D01*
X016258Y012199D01*
X016251Y012217D01*
X016189Y012279D01*
X016232Y012297D01*
X016330Y012394D01*
X016383Y012522D01*
X016383Y012660D01*
X016330Y012787D01*
X016232Y012885D01*
X016105Y012938D01*
X015967Y012938D01*
X015839Y012885D01*
X015742Y012787D01*
X015734Y012770D01*
X015273Y012770D01*
X015037Y012533D01*
X014932Y012429D01*
X014932Y011324D01*
X014930Y011322D01*
X014932Y011250D01*
X014932Y011178D01*
X014934Y011177D01*
X014934Y011174D01*
X014986Y011124D01*
X015037Y011074D01*
X015039Y011074D01*
X015389Y010740D01*
X015424Y010693D01*
X015442Y010690D01*
X015454Y010678D01*
X015513Y010680D01*
X015570Y010671D01*
X015585Y010681D01*
X015602Y010682D01*
X015442Y010690D02*
X014545Y010690D01*
X014643Y010788D02*
X015339Y010788D01*
X015236Y010887D02*
X014699Y010887D01*
X014699Y010985D02*
X015132Y010985D01*
X015027Y011084D02*
X014699Y011084D01*
X014699Y011182D02*
X014932Y011182D01*
X014931Y011281D02*
X014699Y011281D01*
X014699Y011379D02*
X014932Y011379D01*
X014932Y011478D02*
X014699Y011478D01*
X014699Y011576D02*
X014932Y011576D01*
X014932Y011675D02*
X014699Y011675D01*
X014699Y011773D02*
X014932Y011773D01*
X014932Y011872D02*
X014699Y011872D01*
X014699Y011970D02*
X014932Y011970D01*
X014932Y012069D02*
X014699Y012069D01*
X014699Y012167D02*
X014932Y012167D01*
X014932Y012266D02*
X014699Y012266D01*
X014699Y012364D02*
X014932Y012364D01*
X014966Y012463D02*
X014699Y012463D01*
X014699Y012561D02*
X015064Y012561D01*
X015163Y012660D02*
X014699Y012660D01*
X014699Y012758D02*
X015261Y012758D01*
X015347Y012591D02*
X015111Y012355D01*
X015111Y011252D01*
X015524Y010859D01*
X015898Y011134D01*
X016141Y010887D02*
X016290Y010887D01*
X016290Y010985D02*
X016212Y010985D01*
X016245Y011084D02*
X016290Y011084D01*
X016290Y011182D02*
X016245Y011182D01*
X016213Y011281D02*
X016290Y011281D01*
X016290Y011379D02*
X016144Y011379D01*
X016290Y011478D02*
X015976Y011478D01*
X015820Y011478D02*
X015289Y011478D01*
X015289Y011576D02*
X016290Y011576D01*
X016290Y011675D02*
X016029Y011675D01*
X015885Y011675D02*
X015289Y011675D01*
X015289Y011773D02*
X015714Y011773D01*
X015643Y011872D02*
X015289Y011872D01*
X015289Y011970D02*
X015610Y011970D01*
X015610Y012069D02*
X015289Y012069D01*
X015289Y012167D02*
X015643Y012167D01*
X015712Y012266D02*
X015289Y012266D01*
X015373Y012364D02*
X015772Y012364D01*
X016036Y012591D02*
X015347Y012591D01*
X015811Y012857D02*
X014699Y012857D01*
X014699Y012955D02*
X017688Y012955D01*
X017688Y012857D02*
X016261Y012857D01*
X016342Y012758D02*
X017688Y012758D01*
X017688Y012674D02*
X017792Y012570D01*
X019204Y011159D01*
X019204Y009920D01*
X019186Y009913D01*
X019088Y009815D01*
X019035Y009687D01*
X019035Y009550D01*
X019080Y009443D01*
X018439Y009443D01*
X018439Y009528D01*
X018467Y009528D01*
X018595Y009580D01*
X018692Y009678D01*
X018745Y009805D01*
X018745Y009943D01*
X018692Y010071D01*
X018595Y010168D01*
X018467Y010221D01*
X018329Y010221D01*
X018202Y010168D01*
X018104Y010071D01*
X018051Y009943D01*
X018051Y009805D01*
X018081Y009732D01*
X018081Y009190D01*
X018186Y009085D01*
X019846Y009085D01*
X019757Y008990D01*
X017941Y008990D01*
X017652Y009279D01*
X017547Y009384D01*
X009525Y009384D01*
X008344Y008203D01*
X008344Y008203D01*
X008239Y008098D01*
X008239Y007311D01*
X007950Y007022D01*
X007366Y007022D01*
X007334Y007098D01*
X007236Y007196D01*
X007109Y007249D01*
X006971Y007249D01*
X006843Y007196D01*
X006746Y007098D01*
X006693Y006971D01*
X006693Y006833D01*
X006700Y006815D01*
X005877Y005992D01*
X005877Y005588D01*
X005981Y005483D01*
X006369Y005096D01*
X006474Y004991D01*
X006601Y004991D01*
X006608Y004973D01*
X006705Y004876D01*
X006723Y004868D01*
X006723Y004614D01*
X005194Y003085D01*
X002438Y003085D01*
X002044Y002691D01*
X001992Y002638D01*
X001922Y002609D01*
X001824Y002512D01*
X001772Y002384D01*
X001772Y002246D01*
X001824Y002119D01*
X001922Y002021D01*
X002050Y001969D01*
X002187Y001969D01*
X002315Y002021D01*
X002413Y002119D01*
X002420Y002137D01*
X005367Y002137D01*
X005348Y002118D01*
X005295Y001991D01*
X005295Y001853D01*
X005348Y001725D01*
X005446Y001628D01*
X000300Y001628D01*
X000300Y001726D02*
X005348Y001726D01*
X005307Y001825D02*
X000300Y001825D01*
X000300Y001923D02*
X005295Y001923D01*
X005308Y002022D02*
X002315Y002022D01*
X002413Y002120D02*
X005350Y002120D01*
X005642Y001922D02*
X007119Y001922D01*
X007465Y001923D02*
X008636Y001923D01*
X008649Y001910D02*
X008642Y001892D01*
X008642Y001754D01*
X008695Y001627D01*
X008792Y001529D01*
X008920Y001476D01*
X009058Y001476D01*
X009185Y001529D01*
X009283Y001627D01*
X009335Y001754D01*
X009335Y001892D01*
X009283Y002020D01*
X009272Y002031D01*
X009673Y002432D01*
X010271Y002432D01*
X010367Y002336D01*
X010494Y002283D01*
X010632Y002283D01*
X010760Y002336D01*
X010857Y002434D01*
X010910Y002561D01*
X010910Y002699D01*
X010857Y002827D01*
X010760Y002924D01*
X010632Y002977D01*
X010494Y002977D01*
X010367Y002924D01*
X010269Y002827D01*
X010254Y002789D01*
X009525Y002789D01*
X009420Y002685D01*
X008900Y002165D01*
X008570Y002494D01*
X002420Y002494D01*
X002413Y002512D01*
X002392Y002533D01*
X002586Y002727D01*
X005342Y002727D01*
X005447Y002832D01*
X007081Y004466D01*
X007081Y004868D01*
X007098Y004876D01*
X007196Y004973D01*
X007249Y005101D01*
X007249Y005239D01*
X007196Y005366D01*
X007098Y005464D01*
X006971Y005517D01*
X006833Y005517D01*
X006705Y005464D01*
X006608Y005366D01*
X006607Y005363D01*
X006234Y005736D01*
X006234Y005844D01*
X006953Y006562D01*
X006971Y006555D01*
X007090Y006555D01*
X007058Y006523D01*
X006742Y006207D01*
X006705Y006192D01*
X006608Y006095D01*
X006555Y005967D01*
X006555Y005829D01*
X006608Y005702D01*
X006705Y005604D01*
X006833Y005551D01*
X006971Y005551D01*
X007098Y005604D01*
X007196Y005702D01*
X007249Y005829D01*
X007249Y005967D01*
X007196Y006095D01*
X007165Y006125D01*
X007311Y006270D01*
X008649Y006270D01*
X009689Y007310D01*
X009707Y007303D01*
X009845Y007303D01*
X009972Y007356D01*
X010070Y007454D01*
X010123Y007581D01*
X010123Y007719D01*
X010070Y007846D01*
X009972Y007944D01*
X009845Y007997D01*
X009707Y007997D01*
X009580Y007944D01*
X009482Y007846D01*
X009429Y007719D01*
X009429Y007581D01*
X009436Y007563D01*
X008501Y006628D01*
X007256Y006628D01*
X007292Y006664D01*
X008098Y006664D01*
X008203Y006769D01*
X008492Y007058D01*
X008596Y007163D01*
X008596Y007668D01*
X008766Y007668D01*
X008773Y007650D01*
X008871Y007553D01*
X008998Y007500D01*
X009136Y007500D01*
X009264Y007553D01*
X009361Y007650D01*
X009414Y007778D01*
X009414Y007916D01*
X009361Y008043D01*
X009264Y008141D01*
X009136Y008194D01*
X008998Y008194D01*
X008871Y008141D01*
X008773Y008043D01*
X008766Y008026D01*
X008672Y008026D01*
X009673Y009026D01*
X010706Y009026D01*
X010713Y009019D01*
X010624Y008929D01*
X010571Y008802D01*
X010571Y008664D01*
X010624Y008536D01*
X010721Y008439D01*
X010849Y008386D01*
X010987Y008386D01*
X011114Y008439D01*
X011212Y008536D01*
X011265Y008664D01*
X011265Y008802D01*
X011212Y008929D01*
X011115Y009026D01*
X015071Y009026D01*
X015053Y009008D01*
X015000Y008880D01*
X015000Y008742D01*
X015053Y008615D01*
X015150Y008517D01*
X015278Y008465D01*
X015416Y008465D01*
X015543Y008517D01*
X015641Y008615D01*
X015694Y008742D01*
X015694Y008880D01*
X015641Y009008D01*
X015622Y009026D01*
X017399Y009026D01*
X017792Y008633D01*
X019761Y008633D01*
X020641Y007753D01*
X020641Y007499D01*
X020623Y007491D01*
X020525Y007394D01*
X020472Y007266D01*
X020472Y007128D01*
X020525Y007001D01*
X020623Y006903D01*
X020641Y006896D01*
X020641Y006337D01*
X020623Y006330D01*
X020525Y006232D01*
X020510Y006195D01*
X019113Y006195D01*
X019105Y006213D01*
X019008Y006310D01*
X018880Y006363D01*
X018742Y006363D01*
X018615Y006310D01*
X018517Y006213D01*
X018465Y006085D01*
X018465Y005947D01*
X018509Y005841D01*
X014976Y005841D01*
X014976Y005843D01*
X014925Y005883D01*
X013892Y006917D01*
X013787Y007022D01*
X012281Y007022D01*
X010588Y005329D01*
X009407Y005329D01*
X009384Y005306D01*
X009384Y005754D01*
X009402Y005761D01*
X009499Y005859D01*
X009552Y005987D01*
X009552Y006125D01*
X009499Y006252D01*
X009402Y006350D01*
X009274Y006402D01*
X009136Y006402D01*
X009009Y006350D01*
X008911Y006252D01*
X008858Y006125D01*
X008858Y005987D01*
X008911Y005859D01*
X009009Y005761D01*
X009026Y005754D01*
X009026Y005176D01*
X009009Y005168D01*
X008911Y005071D01*
X008858Y004943D01*
X008858Y004805D01*
X008911Y004678D01*
X009009Y004580D01*
X009136Y004528D01*
X009274Y004528D01*
X009402Y004580D01*
X009499Y004678D01*
X009552Y004805D01*
X009552Y004943D01*
X009545Y004961D01*
X009555Y004971D01*
X010736Y004971D01*
X012429Y006664D01*
X012886Y006664D01*
X012848Y006626D01*
X012795Y006499D01*
X012795Y006361D01*
X012848Y006233D01*
X012946Y006135D01*
X012963Y006128D01*
X012963Y004407D01*
X013068Y004302D01*
X013580Y003790D01*
X015854Y003790D01*
X015959Y003895D01*
X016937Y004873D01*
X021946Y004873D01*
X022412Y004407D01*
X022517Y004302D01*
X024771Y004302D01*
X024876Y004407D01*
X026156Y005686D01*
X026156Y007959D01*
X026173Y007966D01*
X026271Y008064D01*
X026324Y008191D01*
X026324Y008329D01*
X026271Y008457D01*
X026173Y008554D01*
X026046Y008607D01*
X025908Y008607D01*
X025780Y008554D01*
X025683Y008457D01*
X025630Y008329D01*
X025630Y008310D01*
X025622Y008318D01*
X025495Y008371D01*
X025367Y008371D01*
X025398Y008447D01*
X025398Y008585D01*
X025346Y008713D01*
X025248Y008810D01*
X025121Y008863D01*
X024983Y008863D01*
X024914Y008835D01*
X025893Y009814D01*
X026996Y009814D01*
X027783Y010601D01*
X027888Y010706D01*
X027888Y011641D01*
X027783Y011746D01*
X027638Y011892D01*
X027662Y011951D01*
X027662Y012089D01*
X027609Y012217D01*
X027512Y012314D01*
X027384Y012367D01*
X027246Y012367D01*
X027119Y012314D01*
X027021Y012217D01*
X026969Y012089D01*
X026969Y011951D01*
X027021Y011824D01*
X027119Y011726D01*
X027246Y011673D01*
X027350Y011673D01*
X027530Y011493D01*
X027530Y010854D01*
X026848Y010171D01*
X025956Y010171D01*
X025992Y010207D01*
X026208Y010207D01*
X026313Y010312D01*
X026313Y012281D01*
X026602Y012570D01*
X026679Y012570D01*
X026687Y012552D01*
X026784Y012454D01*
X026912Y012402D01*
X027050Y012402D01*
X027177Y012454D01*
X027275Y012552D01*
X027328Y012679D01*
X027328Y012817D01*
X027275Y012945D01*
X027177Y013042D01*
X027050Y013095D01*
X026912Y013095D01*
X026784Y013042D01*
X026687Y012945D01*
X026679Y012927D01*
X026454Y012927D01*
X026060Y012533D01*
X025956Y012429D01*
X025956Y010565D01*
X025844Y010565D01*
X025241Y009962D01*
X025241Y010062D01*
X025188Y010189D01*
X025091Y010287D01*
X024963Y010339D01*
X024825Y010339D01*
X024698Y010287D01*
X024600Y010189D01*
X024593Y010171D01*
X024485Y010171D01*
X024381Y010067D01*
X024229Y009915D01*
X024156Y009946D01*
X024018Y009946D01*
X023891Y009893D01*
X023793Y009795D01*
X023740Y009668D01*
X023740Y009530D01*
X023793Y009402D01*
X023823Y009373D01*
X022972Y009381D01*
X022964Y009402D01*
X022866Y009499D01*
X022739Y009552D01*
X022601Y009552D01*
X022473Y009499D01*
X022376Y009402D01*
X022323Y009274D01*
X022323Y009254D01*
X022193Y009384D01*
X022105Y009384D01*
X022098Y009402D01*
X022000Y009499D01*
X021873Y009552D01*
X021735Y009552D01*
X021607Y009499D01*
X021509Y009402D01*
X021457Y009274D01*
X021457Y009136D01*
X021509Y009009D01*
X021607Y008911D01*
X021735Y008858D01*
X021873Y008858D01*
X022000Y008911D01*
X022080Y008991D01*
X022376Y008695D01*
X021592Y008695D01*
X021487Y008590D01*
X021231Y008334D01*
X021231Y007556D01*
X022019Y006769D01*
X022019Y006130D01*
X021730Y005841D01*
X021114Y005841D01*
X021166Y005967D01*
X021166Y006105D01*
X021113Y006232D01*
X021016Y006330D01*
X020998Y006337D01*
X020998Y006896D01*
X021016Y006903D01*
X021113Y007001D01*
X021166Y007128D01*
X021166Y007266D01*
X021113Y007394D01*
X021016Y007491D01*
X020998Y007499D01*
X020998Y007901D01*
X020084Y008816D01*
X020239Y008982D01*
X020289Y009033D01*
X020289Y009036D01*
X020292Y009039D01*
X020289Y009110D01*
X020289Y009455D01*
X020307Y009462D01*
X020405Y009560D01*
X020457Y009687D01*
X020457Y009825D01*
X020405Y009953D01*
X020307Y010050D01*
X020180Y010103D01*
X020042Y010103D01*
X019914Y010050D01*
X019817Y009953D01*
X019764Y009825D01*
X019764Y009687D01*
X019817Y009560D01*
X019914Y009462D01*
X019932Y009455D01*
X019932Y009443D01*
X019685Y009443D01*
X019729Y009550D01*
X019729Y009687D01*
X019676Y009815D01*
X019579Y009913D01*
X019561Y009920D01*
X019561Y011307D01*
X018045Y012822D01*
X018045Y012963D01*
X018156Y012963D01*
X018163Y012946D01*
X018261Y012848D01*
X018388Y012795D01*
X018526Y012795D01*
X018654Y012848D01*
X018751Y012946D01*
X018804Y013073D01*
X018804Y013211D01*
X018751Y013339D01*
X018654Y013436D01*
X018526Y013489D01*
X018466Y013489D01*
X018728Y013751D01*
X021730Y013751D01*
X022685Y012796D01*
X022677Y012778D01*
X022677Y012640D01*
X022730Y012513D01*
X022828Y012415D01*
X022955Y012362D01*
X023093Y012362D01*
X023220Y012415D01*
X023318Y012513D01*
X023325Y012530D01*
X023633Y012530D01*
X023633Y011119D01*
X024144Y010607D01*
X024249Y010503D01*
X024278Y010503D01*
X024285Y010485D01*
X024383Y010387D01*
X024510Y010335D01*
X024648Y010335D01*
X024776Y010387D01*
X024873Y010485D01*
X024926Y010613D01*
X024926Y010750D01*
X024873Y010878D01*
X024776Y010976D01*
X024648Y011028D01*
X024510Y011028D01*
X024383Y010976D01*
X024332Y010925D01*
X023990Y011267D01*
X023990Y012783D01*
X023885Y012888D01*
X023325Y012888D01*
X023318Y012906D01*
X023220Y013003D01*
X023093Y013056D01*
X022955Y013056D01*
X022937Y013049D01*
X021878Y014108D01*
X018580Y014108D01*
X018475Y014004D01*
X017792Y013321D01*
X017688Y013216D01*
X017688Y012674D01*
X017703Y012660D02*
X016383Y012660D01*
X016383Y012561D02*
X017801Y012561D01*
X017900Y012463D02*
X016358Y012463D01*
X016299Y012364D02*
X017998Y012364D01*
X018097Y012266D02*
X016202Y012266D01*
X016437Y012167D02*
X018195Y012167D01*
X018294Y012069D02*
X016535Y012069D01*
X016634Y011970D02*
X018392Y011970D01*
X018491Y011872D02*
X016648Y011872D01*
X016648Y011773D02*
X018589Y011773D01*
X018688Y011675D02*
X016648Y011675D01*
X016648Y011576D02*
X018786Y011576D01*
X018885Y011478D02*
X016648Y011478D01*
X016648Y011379D02*
X018983Y011379D01*
X019082Y011281D02*
X016648Y011281D01*
X016648Y011182D02*
X019180Y011182D01*
X019204Y011084D02*
X016648Y011084D01*
X016694Y010985D02*
X019204Y010985D01*
X019204Y010887D02*
X016792Y010887D01*
X016891Y010788D02*
X019204Y010788D01*
X019204Y010690D02*
X016989Y010690D01*
X017325Y010591D02*
X019204Y010591D01*
X019204Y010493D02*
X017406Y010493D01*
X017446Y010394D02*
X019204Y010394D01*
X019204Y010296D02*
X017446Y010296D01*
X017420Y010197D02*
X018271Y010197D01*
X018132Y010099D02*
X017361Y010099D01*
X017215Y010000D02*
X018075Y010000D01*
X018051Y009902D02*
X008990Y009902D01*
X008990Y010000D02*
X016982Y010000D01*
X016837Y010099D02*
X008990Y010099D01*
X008990Y010197D02*
X016777Y010197D01*
X016752Y010296D02*
X014054Y010296D01*
X014148Y010394D02*
X016752Y010394D01*
X016681Y010493D02*
X014348Y010493D01*
X013648Y010296D02*
X008990Y010296D01*
X009072Y010394D02*
X013554Y010394D01*
X013513Y010493D02*
X009408Y010493D01*
X009205Y010780D02*
X009205Y011213D01*
X009776Y011784D01*
X012571Y011784D01*
X013142Y012355D01*
X013142Y012512D01*
X012670Y012985D01*
X012347Y012857D02*
X011824Y012857D01*
X011913Y012758D02*
X012406Y012758D01*
X012548Y012660D02*
X011954Y012660D01*
X011959Y012561D02*
X012841Y012561D01*
X012939Y012463D02*
X011941Y012463D01*
X011890Y012364D02*
X012899Y012364D01*
X012800Y012266D02*
X011767Y012266D01*
X011458Y012266D02*
X010156Y012266D01*
X010255Y012364D02*
X011335Y012364D01*
X011613Y012577D02*
X010215Y012577D01*
X008024Y010386D01*
X008024Y009441D01*
X007473Y009441D01*
X007152Y009311D02*
X006203Y009311D01*
X006104Y009409D02*
X007126Y009409D01*
X007126Y009508D02*
X006006Y009508D01*
X005907Y009606D02*
X007166Y009606D01*
X007246Y009705D02*
X005809Y009705D01*
X005710Y009803D02*
X007845Y009803D01*
X007845Y009705D02*
X007700Y009705D01*
X007845Y009902D02*
X005612Y009902D01*
X005513Y010000D02*
X007845Y010000D01*
X007821Y010099D02*
X005447Y010099D01*
X005447Y010067D02*
X005447Y011463D01*
X005465Y011470D01*
X005562Y011568D01*
X005615Y011695D01*
X005615Y011833D01*
X005562Y011961D01*
X005465Y012058D01*
X005337Y012111D01*
X005199Y012111D01*
X005072Y012058D01*
X004974Y011961D01*
X004921Y011833D01*
X004921Y011695D01*
X004974Y011568D01*
X005072Y011470D01*
X005089Y011463D01*
X005089Y009918D01*
X005194Y009814D01*
X007241Y007767D01*
X007290Y007767D01*
X007297Y007749D01*
X007394Y007651D01*
X007522Y007598D01*
X007660Y007598D01*
X007787Y007651D01*
X007885Y007749D01*
X007938Y007876D01*
X007938Y008014D01*
X007885Y008142D01*
X007787Y008239D01*
X007660Y008292D01*
X007522Y008292D01*
X007394Y008239D01*
X007334Y008179D01*
X005447Y010067D01*
X005447Y010197D02*
X007727Y010197D01*
X007686Y010296D02*
X005447Y010296D01*
X005447Y010394D02*
X007677Y010394D01*
X007693Y010493D02*
X005447Y010493D01*
X005447Y010591D02*
X007738Y010591D01*
X007850Y010690D02*
X005447Y010690D01*
X005447Y010788D02*
X008173Y010788D01*
X008272Y010887D02*
X005447Y010887D01*
X005447Y010985D02*
X008370Y010985D01*
X008469Y011084D02*
X005447Y011084D01*
X005447Y011182D02*
X008567Y011182D01*
X008666Y011281D02*
X005447Y011281D01*
X005447Y011379D02*
X008764Y011379D01*
X008863Y011478D02*
X005472Y011478D01*
X005566Y011576D02*
X008961Y011576D01*
X009060Y011675D02*
X005606Y011675D01*
X005615Y011773D02*
X009158Y011773D01*
X009257Y011872D02*
X005599Y011872D01*
X005553Y011970D02*
X009355Y011970D01*
X009454Y012069D02*
X005440Y012069D01*
X005097Y012069D02*
X000300Y012069D01*
X000300Y012167D02*
X009552Y012167D01*
X009651Y012266D02*
X000300Y012266D01*
X000300Y012364D02*
X009749Y012364D01*
X009848Y012463D02*
X000300Y012463D01*
X000300Y012561D02*
X009946Y012561D01*
X010045Y012660D02*
X000300Y012660D01*
X000300Y012758D02*
X011312Y012758D01*
X011401Y012857D02*
X009016Y012857D01*
X009109Y012955D02*
X012323Y012955D01*
X012323Y013054D02*
X009150Y013054D01*
X009158Y013152D02*
X012364Y013152D01*
X012445Y013251D02*
X009173Y013251D01*
X009271Y013349D02*
X014341Y013349D01*
X014341Y013251D02*
X012894Y013251D01*
X012976Y013152D02*
X014341Y013152D01*
X014341Y013054D02*
X013017Y013054D01*
X013017Y012955D02*
X014341Y012955D01*
X014341Y012857D02*
X013051Y012857D01*
X013149Y012758D02*
X014341Y012758D01*
X014341Y012660D02*
X013248Y012660D01*
X013321Y012561D02*
X014341Y012561D01*
X014341Y012463D02*
X013321Y012463D01*
X013321Y012364D02*
X014341Y012364D01*
X014341Y012266D02*
X013306Y012266D01*
X013207Y012167D02*
X014341Y012167D01*
X014341Y012069D02*
X013109Y012069D01*
X013010Y011970D02*
X014341Y011970D01*
X014341Y011872D02*
X012912Y011872D01*
X012813Y011773D02*
X014341Y011773D01*
X014341Y011675D02*
X012715Y011675D01*
X012505Y011970D02*
X009861Y011970D01*
X009959Y012069D02*
X012603Y012069D01*
X012702Y012167D02*
X010058Y012167D01*
X009821Y011576D02*
X014341Y011576D01*
X014341Y011478D02*
X009722Y011478D01*
X010166Y011281D02*
X010568Y011281D01*
X010455Y011182D02*
X010278Y011182D01*
X009993Y010977D02*
X010741Y010977D01*
X011079Y010887D02*
X013677Y010887D01*
X013565Y010788D02*
X011038Y010788D01*
X010944Y010690D02*
X013519Y010690D01*
X015289Y011379D02*
X015652Y011379D01*
X015583Y011281D02*
X015340Y011281D01*
X015444Y011182D02*
X015551Y011182D01*
X015729Y010788D02*
X015828Y010788D01*
X015969Y010788D02*
X016385Y010788D01*
X016469Y010957D02*
X017099Y010327D01*
X016469Y010957D02*
X016469Y011882D01*
X016331Y012020D01*
X015957Y012020D01*
X016201Y011773D02*
X016290Y011773D01*
X017867Y012748D02*
X017867Y013142D01*
X018457Y013142D01*
X018804Y013152D02*
X020528Y013152D01*
X020512Y013113D02*
X020565Y013240D01*
X020662Y013338D01*
X020790Y013391D01*
X020928Y013391D01*
X021055Y013338D01*
X021153Y013240D01*
X021206Y013113D01*
X021206Y012975D01*
X021153Y012847D01*
X021055Y012750D01*
X021037Y012742D01*
X021037Y010038D01*
X021055Y010031D01*
X021153Y009933D01*
X021206Y009806D01*
X021206Y009668D01*
X021153Y009540D01*
X021055Y009443D01*
X020928Y009390D01*
X020790Y009390D01*
X020662Y009443D01*
X020565Y009540D01*
X020512Y009668D01*
X020512Y009806D01*
X020565Y009933D01*
X020662Y010031D01*
X020680Y010038D01*
X020680Y012742D01*
X020662Y012750D01*
X020565Y012847D01*
X020512Y012975D01*
X020512Y013113D01*
X020512Y013054D02*
X018796Y013054D01*
X018755Y012955D02*
X020520Y012955D01*
X020561Y012857D02*
X018662Y012857D01*
X018252Y012857D02*
X018045Y012857D01*
X018045Y012955D02*
X018159Y012955D01*
X018110Y012758D02*
X020654Y012758D01*
X020680Y012660D02*
X018208Y012660D01*
X018307Y012561D02*
X020680Y012561D01*
X020680Y012463D02*
X018405Y012463D01*
X018504Y012364D02*
X020680Y012364D01*
X020680Y012266D02*
X018602Y012266D01*
X018701Y012167D02*
X020680Y012167D01*
X020680Y012069D02*
X018799Y012069D01*
X018898Y011970D02*
X020680Y011970D01*
X020680Y011872D02*
X018996Y011872D01*
X019095Y011773D02*
X020680Y011773D01*
X020680Y011675D02*
X019193Y011675D01*
X019292Y011576D02*
X020680Y011576D01*
X020680Y011478D02*
X019390Y011478D01*
X019489Y011379D02*
X020680Y011379D01*
X020680Y011281D02*
X019561Y011281D01*
X019561Y011182D02*
X020680Y011182D01*
X020680Y011084D02*
X019561Y011084D01*
X019561Y010985D02*
X020680Y010985D01*
X020680Y010887D02*
X019561Y010887D01*
X019561Y010788D02*
X020680Y010788D01*
X020680Y010690D02*
X019561Y010690D01*
X019561Y010591D02*
X020680Y010591D01*
X020680Y010493D02*
X019561Y010493D01*
X019561Y010394D02*
X020680Y010394D01*
X020680Y010296D02*
X019561Y010296D01*
X019561Y010197D02*
X020680Y010197D01*
X020680Y010099D02*
X020191Y010099D01*
X020030Y010099D02*
X019561Y010099D01*
X019561Y010000D02*
X019864Y010000D01*
X019795Y009902D02*
X019590Y009902D01*
X019681Y009803D02*
X019764Y009803D01*
X019764Y009705D02*
X019722Y009705D01*
X019729Y009606D02*
X019797Y009606D01*
X019869Y009508D02*
X019712Y009508D01*
X019382Y009619D02*
X019382Y011233D01*
X017867Y012748D01*
X017688Y013054D02*
X014699Y013054D01*
X014699Y013152D02*
X017688Y013152D01*
X017722Y013251D02*
X014699Y013251D01*
X014783Y013349D02*
X017821Y013349D01*
X017919Y013448D02*
X014881Y013448D01*
X014980Y013546D02*
X018018Y013546D01*
X018116Y013645D02*
X015316Y013645D01*
X015409Y013743D02*
X018215Y013743D01*
X018313Y013842D02*
X015450Y013842D01*
X015457Y013940D02*
X018412Y013940D01*
X018510Y014039D02*
X015441Y014039D01*
X015394Y014137D02*
X023474Y014137D01*
X023478Y014127D02*
X023425Y014254D01*
X023425Y014392D01*
X023478Y014520D01*
X023576Y014617D01*
X023703Y014670D01*
X023841Y014670D01*
X023969Y014617D01*
X024054Y014532D01*
X025852Y014532D01*
X025938Y014617D01*
X026065Y014670D01*
X026203Y014670D01*
X026331Y014617D01*
X026428Y014520D01*
X026481Y014392D01*
X026481Y014254D01*
X026428Y014127D01*
X026331Y014029D01*
X026313Y014022D01*
X026313Y013837D01*
X026331Y013830D01*
X026428Y013732D01*
X026481Y013605D01*
X026481Y013467D01*
X026428Y013339D01*
X026331Y013242D01*
X026203Y013189D01*
X026065Y013189D01*
X025938Y013242D01*
X025840Y013339D01*
X025787Y013467D01*
X025787Y013605D01*
X025840Y013732D01*
X025938Y013830D01*
X025956Y013837D01*
X025956Y014022D01*
X025938Y014029D01*
X025852Y014114D01*
X024054Y014114D01*
X023969Y014029D01*
X023841Y013976D01*
X023703Y013976D01*
X023576Y014029D01*
X023478Y014127D01*
X023433Y014236D02*
X015278Y014236D01*
X014959Y014334D02*
X023425Y014334D01*
X023442Y014433D02*
X014860Y014433D01*
X014762Y014531D02*
X023489Y014531D01*
X023605Y014630D02*
X014663Y014630D01*
X014565Y014728D02*
X030720Y014728D01*
X030720Y014630D02*
X026301Y014630D01*
X026417Y014531D02*
X030720Y014531D01*
X030720Y014433D02*
X026464Y014433D01*
X026481Y014334D02*
X030720Y014334D01*
X030720Y014236D02*
X026473Y014236D01*
X026433Y014137D02*
X030720Y014137D01*
X030720Y014039D02*
X026340Y014039D01*
X026313Y013940D02*
X030720Y013940D01*
X030720Y013842D02*
X026313Y013842D01*
X026418Y013743D02*
X030720Y013743D01*
X030720Y013645D02*
X026465Y013645D01*
X026481Y013546D02*
X030720Y013546D01*
X030720Y013448D02*
X026473Y013448D01*
X026432Y013349D02*
X030720Y013349D01*
X030720Y013251D02*
X026339Y013251D01*
X026697Y012955D02*
X023269Y012955D01*
X023099Y013054D02*
X026811Y013054D01*
X027150Y013054D02*
X030720Y013054D01*
X030720Y013152D02*
X022834Y013152D01*
X022932Y013054D02*
X022949Y013054D01*
X022735Y013251D02*
X025929Y013251D01*
X025836Y013349D02*
X022637Y013349D01*
X022538Y013448D02*
X025795Y013448D01*
X025787Y013546D02*
X022440Y013546D01*
X022341Y013645D02*
X025804Y013645D01*
X025851Y013743D02*
X022243Y013743D01*
X022144Y013842D02*
X025956Y013842D01*
X025956Y013940D02*
X022046Y013940D01*
X021947Y014039D02*
X023566Y014039D01*
X023978Y014039D02*
X025928Y014039D01*
X026134Y014323D02*
X026134Y013536D01*
X027265Y012955D02*
X030720Y012955D01*
X030720Y012857D02*
X027311Y012857D01*
X027328Y012758D02*
X030720Y012758D01*
X030720Y012660D02*
X027319Y012660D01*
X027279Y012561D02*
X030720Y012561D01*
X030720Y012463D02*
X027185Y012463D01*
X027239Y012364D02*
X026396Y012364D01*
X026313Y012266D02*
X027070Y012266D01*
X027001Y012167D02*
X026313Y012167D01*
X026313Y012069D02*
X026969Y012069D01*
X026969Y011970D02*
X026313Y011970D01*
X026313Y011872D02*
X027001Y011872D01*
X027072Y011773D02*
X026313Y011773D01*
X026313Y011675D02*
X027243Y011675D01*
X027448Y011576D02*
X026313Y011576D01*
X026313Y011478D02*
X027530Y011478D01*
X027530Y011379D02*
X026313Y011379D01*
X026313Y011281D02*
X027530Y011281D01*
X027530Y011182D02*
X026313Y011182D01*
X026313Y011084D02*
X027530Y011084D01*
X027530Y010985D02*
X026313Y010985D01*
X026313Y010887D02*
X027530Y010887D01*
X027464Y010788D02*
X026313Y010788D01*
X026313Y010690D02*
X027366Y010690D01*
X027267Y010591D02*
X026313Y010591D01*
X026313Y010493D02*
X027169Y010493D01*
X027070Y010394D02*
X026313Y010394D01*
X026296Y010296D02*
X026972Y010296D01*
X026873Y010197D02*
X025981Y010197D01*
X025918Y010386D02*
X024717Y009185D01*
X022670Y009205D01*
X022338Y009311D02*
X022266Y009311D01*
X022383Y009409D02*
X022090Y009409D01*
X021980Y009508D02*
X022493Y009508D01*
X022846Y009508D02*
X023749Y009508D01*
X023740Y009606D02*
X021180Y009606D01*
X021206Y009705D02*
X023755Y009705D01*
X023801Y009803D02*
X021206Y009803D01*
X021166Y009902D02*
X023911Y009902D01*
X024314Y010000D02*
X021086Y010000D01*
X021037Y010099D02*
X024413Y010099D01*
X024559Y009993D02*
X024894Y009993D01*
X024559Y009993D02*
X024166Y009599D01*
X024087Y009599D01*
X023790Y009409D02*
X022956Y009409D01*
X022512Y008811D02*
X022119Y009205D01*
X021804Y009205D01*
X021457Y009212D02*
X020289Y009212D01*
X020289Y009114D02*
X021466Y009114D01*
X021507Y009015D02*
X020272Y009015D01*
X020178Y008917D02*
X021602Y008917D01*
X021518Y008621D02*
X020278Y008621D01*
X020180Y008720D02*
X022351Y008720D01*
X022253Y008818D02*
X020086Y008818D01*
X019835Y008811D02*
X017867Y008811D01*
X017473Y009205D01*
X015347Y009205D01*
X015347Y008811D01*
X015694Y008818D02*
X017607Y008818D01*
X017509Y008917D02*
X015679Y008917D01*
X015634Y009015D02*
X017410Y009015D01*
X017620Y009311D02*
X018081Y009311D01*
X018081Y009409D02*
X008990Y009409D01*
X008990Y009311D02*
X009451Y009311D01*
X009353Y009212D02*
X008990Y009212D01*
X008973Y009114D02*
X009254Y009114D01*
X009156Y009015D02*
X008205Y009015D01*
X008106Y008917D02*
X009057Y008917D01*
X008959Y008818D02*
X008008Y008818D01*
X007938Y008720D02*
X008860Y008720D01*
X008762Y008621D02*
X007938Y008621D01*
X007912Y008523D02*
X008663Y008523D01*
X008565Y008424D02*
X007852Y008424D01*
X007704Y008326D02*
X008466Y008326D01*
X008368Y008227D02*
X007800Y008227D01*
X007890Y008129D02*
X008269Y008129D01*
X008239Y008030D02*
X007931Y008030D01*
X007938Y007932D02*
X008239Y007932D01*
X008239Y007833D02*
X007920Y007833D01*
X007871Y007735D02*
X008239Y007735D01*
X008239Y007636D02*
X007751Y007636D01*
X007431Y007636D02*
X006303Y007636D01*
X006267Y007671D02*
X005736Y008203D01*
X002044Y008203D01*
X001940Y008098D01*
X001940Y007932D01*
X001922Y007924D01*
X001824Y007827D01*
X001772Y007699D01*
X001772Y007561D01*
X001824Y007434D01*
X001922Y007336D01*
X002050Y007283D01*
X002187Y007283D01*
X002315Y007336D01*
X002413Y007434D01*
X002465Y007561D01*
X002465Y007699D01*
X002413Y007827D01*
X002394Y007845D01*
X005588Y007845D01*
X005989Y007444D01*
X005899Y007354D01*
X005846Y007227D01*
X005846Y007089D01*
X005899Y006961D01*
X005997Y006864D01*
X006124Y006811D01*
X006262Y006811D01*
X006390Y006864D01*
X006487Y006961D01*
X006540Y007089D01*
X006540Y007227D01*
X006487Y007354D01*
X006390Y007452D01*
X006372Y007459D01*
X006372Y007567D01*
X006267Y007671D01*
X006204Y007735D02*
X007311Y007735D01*
X007175Y007833D02*
X006106Y007833D01*
X006007Y007932D02*
X007076Y007932D01*
X006978Y008030D02*
X005909Y008030D01*
X005810Y008129D02*
X006879Y008129D01*
X006781Y008227D02*
X000300Y008227D01*
X000300Y008129D02*
X001970Y008129D01*
X001940Y008030D02*
X000300Y008030D01*
X000300Y007932D02*
X001939Y007932D01*
X001831Y007833D02*
X000300Y007833D01*
X000300Y007735D02*
X001786Y007735D01*
X001772Y007636D02*
X000300Y007636D01*
X000300Y007538D02*
X001782Y007538D01*
X001822Y007439D02*
X000300Y007439D01*
X000300Y007341D02*
X001918Y007341D01*
X002119Y007630D02*
X002119Y008024D01*
X005662Y008024D01*
X006193Y007493D01*
X006193Y007158D01*
X005846Y007144D02*
X005772Y007144D01*
X005772Y007089D02*
X005722Y006968D01*
X005722Y006257D01*
X006142Y006257D01*
X006044Y006159D02*
X005624Y006159D01*
X005618Y006152D02*
X005722Y006257D01*
X005722Y006356D02*
X006241Y006356D01*
X006339Y006454D02*
X005722Y006454D01*
X005722Y006553D02*
X006438Y006553D01*
X006536Y006651D02*
X005722Y006651D01*
X005722Y006750D02*
X006635Y006750D01*
X006693Y006848D02*
X006352Y006848D01*
X006472Y006947D02*
X006693Y006947D01*
X006724Y007045D02*
X006522Y007045D01*
X006540Y007144D02*
X006791Y007144D01*
X006954Y007242D02*
X006534Y007242D01*
X006493Y007341D02*
X008239Y007341D01*
X008239Y007439D02*
X006403Y007439D01*
X006372Y007538D02*
X008239Y007538D01*
X008170Y007242D02*
X007125Y007242D01*
X007289Y007144D02*
X008072Y007144D01*
X007973Y007045D02*
X007356Y007045D01*
X007099Y006843D02*
X007040Y006902D01*
X006056Y005918D01*
X006056Y005662D01*
X006548Y005170D01*
X006902Y005170D01*
X006902Y004540D01*
X005268Y002906D01*
X002512Y002906D01*
X002119Y002512D01*
X002119Y002315D01*
X008496Y002315D01*
X008989Y001823D01*
X008989Y002000D01*
X009599Y002611D01*
X010544Y002611D01*
X010563Y002630D01*
X010891Y002514D02*
X016825Y002514D01*
X016923Y002416D02*
X010839Y002416D01*
X010713Y002317D02*
X017022Y002317D01*
X016979Y002359D02*
X017084Y002255D01*
X017985Y002255D01*
X017966Y002236D01*
X017913Y002109D01*
X017913Y001971D01*
X017966Y001843D01*
X018064Y001746D01*
X018191Y001693D01*
X018329Y001693D01*
X018457Y001746D01*
X018554Y001843D01*
X018562Y001861D01*
X018746Y001861D01*
X018754Y001843D01*
X018851Y001746D01*
X018979Y001693D01*
X019117Y001693D01*
X019244Y001746D01*
X019342Y001843D01*
X019394Y001971D01*
X019394Y002109D01*
X019342Y002236D01*
X019244Y002334D01*
X019144Y002375D01*
X019276Y002507D01*
X019294Y002500D01*
X019432Y002500D01*
X019559Y002553D01*
X019657Y002650D01*
X019709Y002778D01*
X019709Y002916D01*
X019657Y003043D01*
X019559Y003141D01*
X019432Y003194D01*
X019294Y003194D01*
X019166Y003141D01*
X019069Y003043D01*
X019016Y002916D01*
X019016Y002778D01*
X019023Y002760D01*
X018875Y002612D01*
X018457Y002612D01*
X018554Y002709D01*
X018607Y002837D01*
X018607Y002975D01*
X018554Y003102D01*
X018457Y003200D01*
X018329Y003253D01*
X018191Y003253D01*
X018064Y003200D01*
X017966Y003102D01*
X017959Y003085D01*
X017941Y003085D01*
X017317Y003708D01*
X017317Y003943D01*
X017335Y003950D01*
X017432Y004048D01*
X017485Y004175D01*
X017485Y004313D01*
X017432Y004441D01*
X017335Y004539D01*
X017207Y004591D01*
X017069Y004591D01*
X016942Y004539D01*
X016844Y004441D01*
X016791Y004313D01*
X016791Y004175D01*
X016844Y004048D01*
X016942Y003950D01*
X016959Y003943D01*
X016959Y003560D01*
X017688Y002832D01*
X017792Y002727D01*
X017959Y002727D01*
X017966Y002709D01*
X018063Y002612D01*
X017232Y002612D01*
X016631Y003213D01*
X016639Y003231D01*
X016639Y003369D01*
X016586Y003496D01*
X016488Y003594D01*
X016361Y003646D01*
X016223Y003646D01*
X016095Y003594D01*
X015998Y003496D01*
X015945Y003369D01*
X015945Y003231D01*
X015998Y003103D01*
X016095Y003006D01*
X016223Y002953D01*
X016361Y002953D01*
X016378Y002960D01*
X016979Y002359D01*
X017158Y002433D02*
X018949Y002433D01*
X019363Y002847D01*
X019682Y002711D02*
X030720Y002711D01*
X030720Y002613D02*
X019619Y002613D01*
X019465Y002514D02*
X030720Y002514D01*
X030720Y002416D02*
X019184Y002416D01*
X019261Y002317D02*
X030720Y002317D01*
X030720Y002219D02*
X019349Y002219D01*
X019390Y002120D02*
X030720Y002120D01*
X030720Y002022D02*
X019394Y002022D01*
X019375Y001923D02*
X030720Y001923D01*
X030720Y001825D02*
X019323Y001825D01*
X019197Y001726D02*
X030720Y001726D01*
X030720Y001628D02*
X009283Y001628D01*
X009324Y001726D02*
X018111Y001726D01*
X017985Y001825D02*
X009335Y001825D01*
X009323Y001923D02*
X017933Y001923D01*
X017913Y002022D02*
X009281Y002022D01*
X009361Y002120D02*
X017918Y002120D01*
X017959Y002219D02*
X009459Y002219D01*
X009558Y002317D02*
X010413Y002317D01*
X010288Y002416D02*
X009656Y002416D01*
X009446Y002711D02*
X002570Y002711D01*
X002472Y002613D02*
X009348Y002613D01*
X009249Y002514D02*
X002410Y002514D01*
X002065Y002711D02*
X000300Y002711D01*
X000300Y002613D02*
X001930Y002613D01*
X001827Y002514D02*
X000300Y002514D01*
X000300Y002416D02*
X001785Y002416D01*
X001772Y002317D02*
X000300Y002317D01*
X000300Y002219D02*
X001783Y002219D01*
X001824Y002120D02*
X000300Y002120D01*
X000300Y002022D02*
X001922Y002022D01*
X002163Y002810D02*
X000300Y002810D01*
X000300Y002908D02*
X002262Y002908D01*
X002360Y003007D02*
X000300Y003007D01*
X000300Y003105D02*
X005214Y003105D01*
X005313Y003204D02*
X000300Y003204D01*
X000300Y003302D02*
X005411Y003302D01*
X005510Y003401D02*
X000300Y003401D01*
X000300Y003499D02*
X005608Y003499D01*
X005707Y003598D02*
X000300Y003598D01*
X000300Y003696D02*
X005805Y003696D01*
X005904Y003795D02*
X000300Y003795D01*
X000300Y003893D02*
X006002Y003893D01*
X006101Y003992D02*
X000300Y003992D01*
X000300Y004090D02*
X006199Y004090D01*
X006298Y004189D02*
X000300Y004189D01*
X000300Y004287D02*
X006396Y004287D01*
X006495Y004386D02*
X000300Y004386D01*
X000300Y004484D02*
X006593Y004484D01*
X006692Y004583D02*
X000300Y004583D01*
X000300Y004681D02*
X006723Y004681D01*
X006723Y004780D02*
X000300Y004780D01*
X000300Y004878D02*
X006703Y004878D01*
X006607Y004977D02*
X000300Y004977D01*
X000300Y005075D02*
X006390Y005075D01*
X006291Y005174D02*
X000300Y005174D01*
X000300Y005272D02*
X006193Y005272D01*
X006094Y005371D02*
X000300Y005371D01*
X000300Y005469D02*
X005996Y005469D01*
X005897Y005568D02*
X000300Y005568D01*
X000300Y005666D02*
X005877Y005666D01*
X005877Y005765D02*
X000300Y005765D01*
X000300Y005863D02*
X005877Y005863D01*
X005877Y005962D02*
X000300Y005962D01*
X000300Y006060D02*
X005945Y006060D01*
X005618Y006152D02*
X004525Y006152D01*
X004174Y006503D01*
X004156Y006496D01*
X004018Y006496D01*
X003891Y006549D01*
X003793Y006646D01*
X003740Y006774D01*
X003740Y006912D01*
X003793Y007039D01*
X003891Y007137D01*
X004018Y007190D01*
X004156Y007190D01*
X004283Y007137D01*
X004381Y007039D01*
X004434Y006912D01*
X004434Y006774D01*
X004427Y006756D01*
X004673Y006510D01*
X005365Y006510D01*
X005365Y006811D01*
X005357Y006811D01*
X005229Y006864D01*
X005132Y006961D01*
X005079Y007089D01*
X005079Y007227D01*
X005132Y007354D01*
X005229Y007452D01*
X005357Y007505D01*
X005495Y007505D01*
X005622Y007452D01*
X005720Y007354D01*
X005772Y007227D01*
X005772Y007089D01*
X005754Y007045D02*
X005865Y007045D01*
X005914Y006947D02*
X005722Y006947D01*
X005722Y006848D02*
X006035Y006848D01*
X005853Y007242D02*
X005766Y007242D01*
X005725Y007341D02*
X005894Y007341D01*
X005984Y007439D02*
X005635Y007439D01*
X005797Y007636D02*
X002465Y007636D01*
X002455Y007538D02*
X005896Y007538D01*
X005699Y007735D02*
X002451Y007735D01*
X002406Y007833D02*
X005600Y007833D01*
X005216Y007439D02*
X002415Y007439D01*
X002319Y007341D02*
X005126Y007341D01*
X005085Y007242D02*
X000300Y007242D01*
X000300Y007144D02*
X003906Y007144D01*
X003799Y007045D02*
X000300Y007045D01*
X000300Y006947D02*
X003754Y006947D01*
X003740Y006848D02*
X000300Y006848D01*
X000300Y006750D02*
X003750Y006750D01*
X003791Y006651D02*
X000300Y006651D01*
X000300Y006553D02*
X003887Y006553D01*
X004223Y006454D02*
X000300Y006454D01*
X000300Y006356D02*
X004322Y006356D01*
X004420Y006257D02*
X000300Y006257D01*
X000300Y006159D02*
X004519Y006159D01*
X004599Y006331D02*
X004087Y006843D01*
X004434Y006848D02*
X005267Y006848D01*
X005365Y006750D02*
X004433Y006750D01*
X004532Y006651D02*
X005365Y006651D01*
X005365Y006553D02*
X004630Y006553D01*
X004599Y006331D02*
X005544Y006331D01*
X005544Y007040D01*
X005426Y007158D01*
X005079Y007144D02*
X004268Y007144D01*
X004375Y007045D02*
X005097Y007045D01*
X005146Y006947D02*
X004420Y006947D01*
X006254Y005863D02*
X006555Y005863D01*
X006555Y005962D02*
X006352Y005962D01*
X006451Y006060D02*
X006594Y006060D01*
X006549Y006159D02*
X006672Y006159D01*
X006648Y006257D02*
X006792Y006257D01*
X006746Y006356D02*
X006890Y006356D01*
X006845Y006454D02*
X006989Y006454D01*
X006943Y006553D02*
X007087Y006553D01*
X007237Y006449D02*
X008575Y006449D01*
X009776Y007650D01*
X010123Y007636D02*
X020641Y007636D01*
X020641Y007538D02*
X010105Y007538D01*
X010056Y007439D02*
X020571Y007439D01*
X020503Y007341D02*
X009935Y007341D01*
X009621Y007242D02*
X020472Y007242D01*
X020472Y007144D02*
X009522Y007144D01*
X009424Y007045D02*
X020507Y007045D01*
X020579Y006947D02*
X013862Y006947D01*
X013961Y006848D02*
X020641Y006848D01*
X020641Y006750D02*
X014059Y006750D01*
X014158Y006651D02*
X020641Y006651D01*
X020641Y006553D02*
X014256Y006553D01*
X014355Y006454D02*
X020641Y006454D01*
X020641Y006356D02*
X018898Y006356D01*
X018724Y006356D02*
X014453Y006356D01*
X014552Y006257D02*
X018562Y006257D01*
X018495Y006159D02*
X014650Y006159D01*
X014749Y006060D02*
X018465Y006060D01*
X018465Y005962D02*
X014847Y005962D01*
X014950Y005863D02*
X018499Y005863D01*
X018811Y006016D02*
X020800Y006016D01*
X020819Y006036D01*
X020819Y007197D01*
X020819Y007827D01*
X019835Y008811D01*
X020111Y009107D01*
X020111Y009264D01*
X020111Y009756D01*
X020352Y009508D02*
X020597Y009508D01*
X020537Y009606D02*
X020424Y009606D01*
X020457Y009705D02*
X020512Y009705D01*
X020512Y009803D02*
X020457Y009803D01*
X020426Y009902D02*
X020552Y009902D01*
X020632Y010000D02*
X020357Y010000D01*
X020859Y009737D02*
X020859Y013044D01*
X021206Y013054D02*
X022427Y013054D01*
X022328Y013152D02*
X021189Y013152D01*
X021142Y013251D02*
X022230Y013251D01*
X022131Y013349D02*
X021028Y013349D01*
X020689Y013349D02*
X018741Y013349D01*
X018788Y013251D02*
X020575Y013251D01*
X021197Y012955D02*
X022525Y012955D01*
X022624Y012857D02*
X021157Y012857D01*
X021064Y012758D02*
X022677Y012758D01*
X022677Y012660D02*
X021037Y012660D01*
X021037Y012561D02*
X022710Y012561D01*
X022780Y012463D02*
X021037Y012463D01*
X021037Y012364D02*
X022951Y012364D01*
X023097Y012364D02*
X023633Y012364D01*
X023633Y012266D02*
X021037Y012266D01*
X021037Y012167D02*
X023633Y012167D01*
X023633Y012069D02*
X021037Y012069D01*
X021037Y011970D02*
X023633Y011970D01*
X023633Y011872D02*
X021037Y011872D01*
X021037Y011773D02*
X023633Y011773D01*
X023633Y011675D02*
X021037Y011675D01*
X021037Y011576D02*
X023633Y011576D01*
X023633Y011478D02*
X021037Y011478D01*
X021037Y011379D02*
X023633Y011379D01*
X023633Y011281D02*
X021037Y011281D01*
X021037Y011182D02*
X023633Y011182D01*
X023668Y011084D02*
X021037Y011084D01*
X021037Y010985D02*
X023767Y010985D01*
X023865Y010887D02*
X021037Y010887D01*
X021037Y010788D02*
X023964Y010788D01*
X024062Y010690D02*
X021037Y010690D01*
X021037Y010591D02*
X024161Y010591D01*
X024282Y010493D02*
X021037Y010493D01*
X021037Y010394D02*
X024376Y010394D01*
X024323Y010681D02*
X024579Y010681D01*
X024323Y010681D02*
X023811Y011193D01*
X023811Y012709D01*
X023024Y012709D01*
X021804Y013930D01*
X018654Y013930D01*
X017867Y013142D01*
X018523Y013546D02*
X021934Y013546D01*
X021836Y013645D02*
X018622Y013645D01*
X018720Y013743D02*
X021737Y013743D01*
X022033Y013448D02*
X018626Y013448D01*
X019755Y015880D02*
X019912Y015815D01*
X020081Y015815D01*
X020238Y015880D01*
X020357Y015999D01*
X020422Y016156D01*
X020422Y016325D01*
X020357Y016482D01*
X020238Y016601D01*
X020081Y016666D01*
X019912Y016666D01*
X019755Y016601D01*
X019636Y016482D01*
X019571Y016325D01*
X019571Y016156D01*
X019636Y015999D01*
X019755Y015880D01*
X019725Y015910D02*
X019268Y015910D01*
X019361Y016009D02*
X019632Y016009D01*
X019591Y016107D02*
X019402Y016107D01*
X019422Y016206D02*
X019571Y016206D01*
X019571Y016304D02*
X019422Y016304D01*
X019390Y016403D02*
X019603Y016403D01*
X019655Y016501D02*
X019338Y016501D01*
X019239Y016600D02*
X019754Y016600D01*
X019912Y016815D02*
X020081Y016815D01*
X020238Y016880D01*
X020357Y016999D01*
X020422Y017156D01*
X020422Y017325D01*
X020357Y017482D01*
X020238Y017601D01*
X020081Y017666D01*
X019912Y017666D01*
X019755Y017601D01*
X019636Y017482D01*
X019571Y017325D01*
X019571Y017156D01*
X019636Y016999D01*
X019755Y016880D01*
X019912Y016815D01*
X019740Y016895D02*
X019253Y016895D01*
X019238Y016880D02*
X019357Y016999D01*
X019422Y017156D01*
X019422Y017325D01*
X019357Y017482D01*
X019238Y017601D01*
X019081Y017666D01*
X018912Y017666D01*
X018755Y017601D01*
X018636Y017482D01*
X018571Y017325D01*
X018571Y017156D01*
X018636Y016999D01*
X018755Y016880D01*
X018912Y016815D01*
X019081Y016815D01*
X019238Y016880D01*
X019351Y016994D02*
X019642Y016994D01*
X019597Y017092D02*
X019396Y017092D01*
X019422Y017191D02*
X019571Y017191D01*
X019571Y017289D02*
X019422Y017289D01*
X019396Y017388D02*
X019597Y017388D01*
X019640Y017486D02*
X019353Y017486D01*
X019254Y017585D02*
X019739Y017585D01*
X020254Y017585D02*
X020739Y017585D01*
X020640Y017486D02*
X020353Y017486D01*
X020396Y017388D02*
X020597Y017388D01*
X020571Y017289D02*
X020422Y017289D01*
X020422Y017191D02*
X020571Y017191D01*
X020597Y017092D02*
X020396Y017092D01*
X020351Y016994D02*
X020642Y016994D01*
X020740Y016895D02*
X020253Y016895D01*
X020239Y016600D02*
X020754Y016600D01*
X020755Y016601D02*
X020636Y016482D01*
X020571Y016325D01*
X020571Y016156D01*
X020636Y015999D01*
X020755Y015880D01*
X020912Y015815D01*
X021081Y015815D01*
X021238Y015880D01*
X021357Y015999D01*
X021422Y016156D01*
X021422Y016325D01*
X021357Y016482D01*
X021238Y016601D01*
X021081Y016666D01*
X020912Y016666D01*
X020755Y016601D01*
X020655Y016501D02*
X020338Y016501D01*
X020390Y016403D02*
X020603Y016403D01*
X020571Y016304D02*
X020422Y016304D01*
X020422Y016206D02*
X020571Y016206D01*
X020591Y016107D02*
X020402Y016107D01*
X020361Y016009D02*
X020632Y016009D01*
X020725Y015910D02*
X020268Y015910D01*
X021239Y016600D02*
X021754Y016600D01*
X021755Y016601D02*
X021636Y016482D01*
X021571Y016325D01*
X021571Y016156D01*
X021636Y015999D01*
X021755Y015880D01*
X021912Y015815D01*
X022081Y015815D01*
X022238Y015880D01*
X022357Y015999D01*
X022422Y016156D01*
X022422Y016325D01*
X022357Y016482D01*
X022238Y016601D01*
X022081Y016666D01*
X021912Y016666D01*
X021755Y016601D01*
X021655Y016501D02*
X021338Y016501D01*
X021390Y016403D02*
X021603Y016403D01*
X021571Y016304D02*
X021422Y016304D01*
X021422Y016206D02*
X021571Y016206D01*
X021591Y016107D02*
X021402Y016107D01*
X021361Y016009D02*
X021632Y016009D01*
X021725Y015910D02*
X021268Y015910D01*
X022268Y015910D02*
X022725Y015910D01*
X022755Y015880D02*
X022912Y015815D01*
X023081Y015815D01*
X023238Y015880D01*
X023357Y015999D01*
X023422Y016156D01*
X023422Y016325D01*
X023357Y016482D01*
X023238Y016601D01*
X023081Y016666D01*
X022912Y016666D01*
X022755Y016601D01*
X022636Y016482D01*
X022571Y016325D01*
X022571Y016156D01*
X022636Y015999D01*
X022755Y015880D01*
X022632Y016009D02*
X022361Y016009D01*
X022402Y016107D02*
X022591Y016107D01*
X022571Y016206D02*
X022422Y016206D01*
X022422Y016304D02*
X022571Y016304D01*
X022603Y016403D02*
X022390Y016403D01*
X022338Y016501D02*
X022655Y016501D01*
X022754Y016600D02*
X022239Y016600D01*
X022050Y016797D02*
X030720Y016797D01*
X030720Y016895D02*
X028253Y016895D01*
X028238Y016880D02*
X028357Y016999D01*
X028422Y017156D01*
X028422Y017325D01*
X028357Y017482D01*
X028238Y017601D01*
X028081Y017666D01*
X027912Y017666D01*
X027755Y017601D01*
X027636Y017482D01*
X027571Y017325D01*
X027571Y017156D01*
X027636Y016999D01*
X027755Y016880D01*
X027912Y016815D01*
X028081Y016815D01*
X028238Y016880D01*
X028351Y016994D02*
X030720Y016994D01*
X030720Y017092D02*
X028396Y017092D01*
X028422Y017191D02*
X030720Y017191D01*
X030720Y017289D02*
X028422Y017289D01*
X028396Y017388D02*
X030720Y017388D01*
X030720Y017486D02*
X028353Y017486D01*
X028254Y017585D02*
X030720Y017585D01*
X030720Y017683D02*
X022059Y017683D01*
X022045Y017685D02*
X022045Y017289D01*
X021948Y017289D01*
X021948Y017685D01*
X021892Y017676D01*
X021825Y017655D01*
X021762Y017623D01*
X021705Y017581D01*
X021656Y017532D01*
X021614Y017475D01*
X021582Y017412D01*
X021622Y017486D02*
X021353Y017486D01*
X021254Y017585D02*
X021710Y017585D01*
X021948Y017585D02*
X022045Y017585D01*
X022045Y017486D02*
X021948Y017486D01*
X021948Y017388D02*
X022045Y017388D01*
X022045Y017289D02*
X021948Y017289D01*
X021948Y017191D02*
X022045Y017191D01*
X022045Y017092D02*
X021948Y017092D01*
X021948Y016994D02*
X022045Y016994D01*
X022281Y016895D02*
X022740Y016895D01*
X022642Y016994D02*
X022369Y016994D01*
X022418Y017092D02*
X022597Y017092D01*
X022571Y017191D02*
X022441Y017191D01*
X022370Y017486D02*
X022640Y017486D01*
X022739Y017585D02*
X022283Y017585D01*
X023254Y017585D02*
X023739Y017585D01*
X023755Y017601D02*
X023636Y017482D01*
X023571Y017325D01*
X023571Y017156D01*
X023636Y016999D01*
X023755Y016880D01*
X023912Y016815D01*
X024081Y016815D01*
X024238Y016880D01*
X024357Y016999D01*
X024422Y017156D01*
X024422Y017325D01*
X024357Y017482D01*
X024238Y017601D01*
X024081Y017666D01*
X023912Y017666D01*
X023755Y017601D01*
X023640Y017486D02*
X023353Y017486D01*
X023396Y017388D02*
X023597Y017388D01*
X023571Y017289D02*
X023422Y017289D01*
X023422Y017191D02*
X023571Y017191D01*
X023597Y017092D02*
X023396Y017092D01*
X023351Y016994D02*
X023642Y016994D01*
X023740Y016895D02*
X023253Y016895D01*
X023239Y016600D02*
X023754Y016600D01*
X023755Y016601D02*
X023636Y016482D01*
X023571Y016325D01*
X023571Y016156D01*
X023636Y015999D01*
X023755Y015880D01*
X023912Y015815D01*
X024081Y015815D01*
X024238Y015880D01*
X024357Y015999D01*
X024422Y016156D01*
X024422Y016325D01*
X024357Y016482D01*
X024238Y016601D01*
X024081Y016666D01*
X023912Y016666D01*
X023755Y016601D01*
X023655Y016501D02*
X023338Y016501D01*
X023390Y016403D02*
X023603Y016403D01*
X023571Y016304D02*
X023422Y016304D01*
X023422Y016206D02*
X023571Y016206D01*
X023591Y016107D02*
X023402Y016107D01*
X023361Y016009D02*
X023632Y016009D01*
X023725Y015910D02*
X023268Y015910D01*
X024268Y015910D02*
X024725Y015910D01*
X024755Y015880D02*
X024636Y015999D01*
X024571Y016156D01*
X024571Y016325D01*
X024636Y016482D01*
X024755Y016601D01*
X024912Y016666D01*
X025081Y016666D01*
X025238Y016601D01*
X025357Y016482D01*
X025422Y016325D01*
X025422Y016156D01*
X025357Y015999D01*
X025238Y015880D01*
X025081Y015815D01*
X024912Y015815D01*
X024755Y015880D01*
X024632Y016009D02*
X024361Y016009D01*
X024402Y016107D02*
X024591Y016107D01*
X024571Y016206D02*
X024422Y016206D01*
X024422Y016304D02*
X024571Y016304D01*
X024603Y016403D02*
X024390Y016403D01*
X024338Y016501D02*
X024655Y016501D01*
X024754Y016600D02*
X024239Y016600D01*
X024253Y016895D02*
X024740Y016895D01*
X024755Y016880D02*
X024636Y016999D01*
X024571Y017156D01*
X024571Y017325D01*
X024636Y017482D01*
X024755Y017601D01*
X024912Y017666D01*
X025081Y017666D01*
X025238Y017601D01*
X025357Y017482D01*
X025422Y017325D01*
X025422Y017156D01*
X025357Y016999D01*
X025238Y016880D01*
X025081Y016815D01*
X024912Y016815D01*
X024755Y016880D01*
X024642Y016994D02*
X024351Y016994D01*
X024396Y017092D02*
X024597Y017092D01*
X024571Y017191D02*
X024422Y017191D01*
X024422Y017289D02*
X024571Y017289D01*
X024597Y017388D02*
X024396Y017388D01*
X024353Y017486D02*
X024640Y017486D01*
X024739Y017585D02*
X024254Y017585D01*
X025254Y017585D02*
X025739Y017585D01*
X025755Y017601D02*
X025636Y017482D01*
X025571Y017325D01*
X025571Y017156D01*
X025636Y016999D01*
X025755Y016880D01*
X025912Y016815D01*
X026081Y016815D01*
X026238Y016880D01*
X026357Y016999D01*
X026422Y017156D01*
X026422Y017325D01*
X026357Y017482D01*
X026238Y017601D01*
X026081Y017666D01*
X025912Y017666D01*
X025755Y017601D01*
X025640Y017486D02*
X025353Y017486D01*
X025396Y017388D02*
X025597Y017388D01*
X025571Y017289D02*
X025422Y017289D01*
X025422Y017191D02*
X025571Y017191D01*
X025597Y017092D02*
X025396Y017092D01*
X025351Y016994D02*
X025642Y016994D01*
X025740Y016895D02*
X025253Y016895D01*
X025239Y016600D02*
X025754Y016600D01*
X025755Y016601D02*
X025636Y016482D01*
X025571Y016325D01*
X025571Y016156D01*
X025636Y015999D01*
X025755Y015880D01*
X025912Y015815D01*
X026081Y015815D01*
X026238Y015880D01*
X026357Y015999D01*
X026422Y016156D01*
X026422Y016325D01*
X026357Y016482D01*
X026238Y016601D01*
X026081Y016666D01*
X025912Y016666D01*
X025755Y016601D01*
X025655Y016501D02*
X025338Y016501D01*
X025390Y016403D02*
X025603Y016403D01*
X025571Y016304D02*
X025422Y016304D01*
X025422Y016206D02*
X025571Y016206D01*
X025591Y016107D02*
X025402Y016107D01*
X025361Y016009D02*
X025632Y016009D01*
X025725Y015910D02*
X025268Y015910D01*
X026268Y015910D02*
X026725Y015910D01*
X026755Y015880D02*
X026912Y015815D01*
X027081Y015815D01*
X027238Y015880D01*
X027357Y015999D01*
X027422Y016156D01*
X027422Y016325D01*
X027357Y016482D01*
X027238Y016601D01*
X027081Y016666D01*
X026912Y016666D01*
X026755Y016601D01*
X026636Y016482D01*
X026571Y016325D01*
X026571Y016156D01*
X026636Y015999D01*
X026755Y015880D01*
X026632Y016009D02*
X026361Y016009D01*
X026402Y016107D02*
X026591Y016107D01*
X026571Y016206D02*
X026422Y016206D01*
X026422Y016304D02*
X026571Y016304D01*
X026603Y016403D02*
X026390Y016403D01*
X026338Y016501D02*
X026655Y016501D01*
X026754Y016600D02*
X026239Y016600D01*
X026253Y016895D02*
X026740Y016895D01*
X026755Y016880D02*
X026912Y016815D01*
X027081Y016815D01*
X027238Y016880D01*
X027357Y016999D01*
X027422Y017156D01*
X027422Y017325D01*
X027357Y017482D01*
X027238Y017601D01*
X027081Y017666D01*
X026912Y017666D01*
X026755Y017601D01*
X026636Y017482D01*
X026571Y017325D01*
X026571Y017156D01*
X026636Y016999D01*
X026755Y016880D01*
X026642Y016994D02*
X026351Y016994D01*
X026396Y017092D02*
X026597Y017092D01*
X026571Y017191D02*
X026422Y017191D01*
X026422Y017289D02*
X026571Y017289D01*
X026597Y017388D02*
X026396Y017388D01*
X026353Y017486D02*
X026640Y017486D01*
X026739Y017585D02*
X026254Y017585D01*
X027254Y017585D02*
X027739Y017585D01*
X027640Y017486D02*
X027353Y017486D01*
X027396Y017388D02*
X027597Y017388D01*
X027571Y017289D02*
X027422Y017289D01*
X027422Y017191D02*
X027571Y017191D01*
X027597Y017092D02*
X027396Y017092D01*
X027351Y016994D02*
X027642Y016994D01*
X027740Y016895D02*
X027253Y016895D01*
X027239Y016600D02*
X027754Y016600D01*
X027755Y016601D02*
X027636Y016482D01*
X027571Y016325D01*
X027571Y016156D01*
X027636Y015999D01*
X027755Y015880D01*
X027912Y015815D01*
X028081Y015815D01*
X028238Y015880D01*
X028357Y015999D01*
X028422Y016156D01*
X028422Y016325D01*
X028357Y016482D01*
X028238Y016601D01*
X028081Y016666D01*
X027912Y016666D01*
X027755Y016601D01*
X027655Y016501D02*
X027338Y016501D01*
X027390Y016403D02*
X027603Y016403D01*
X027571Y016304D02*
X027422Y016304D01*
X027422Y016206D02*
X027571Y016206D01*
X027591Y016107D02*
X027402Y016107D01*
X027361Y016009D02*
X027632Y016009D01*
X027725Y015910D02*
X027268Y015910D01*
X028268Y015910D02*
X030720Y015910D01*
X030720Y015812D02*
X013481Y015812D01*
X013580Y015713D02*
X030720Y015713D01*
X030720Y015615D02*
X013678Y015615D01*
X013777Y015516D02*
X030720Y015516D01*
X030720Y015418D02*
X013875Y015418D01*
X013974Y015319D02*
X030720Y015319D01*
X030720Y015221D02*
X014072Y015221D01*
X014171Y015122D02*
X030720Y015122D01*
X030720Y015024D02*
X014269Y015024D01*
X014368Y014925D02*
X030720Y014925D01*
X030720Y014827D02*
X014466Y014827D01*
X014256Y014531D02*
X011746Y014531D01*
X011746Y014433D02*
X014355Y014433D01*
X014453Y014334D02*
X011746Y014334D01*
X011746Y014236D02*
X014552Y014236D01*
X014650Y014137D02*
X011850Y014137D01*
X011898Y014039D02*
X014749Y014039D01*
X014764Y013940D02*
X011914Y013940D01*
X011906Y013842D02*
X014770Y013842D01*
X014671Y013743D02*
X011866Y013743D01*
X011773Y013645D02*
X014573Y013645D01*
X014474Y013546D02*
X009468Y013546D01*
X009370Y013448D02*
X014376Y013448D01*
X014158Y014630D02*
X011752Y014630D01*
X011851Y014728D02*
X014059Y014728D01*
X013961Y014827D02*
X011949Y014827D01*
X012048Y014925D02*
X013862Y014925D01*
X013764Y015024D02*
X012146Y015024D01*
X012245Y015122D02*
X013665Y015122D01*
X013567Y015221D02*
X012343Y015221D01*
X012442Y015319D02*
X013468Y015319D01*
X013370Y015418D02*
X012778Y015418D01*
X011567Y014697D02*
X011567Y013930D01*
X009599Y013930D01*
X008811Y013142D01*
X007237Y013142D01*
X006890Y013152D02*
X000300Y013152D01*
X000300Y013054D02*
X006898Y013054D01*
X006939Y012955D02*
X000300Y012955D01*
X000300Y012857D02*
X007032Y012857D01*
X007442Y012857D02*
X008606Y012857D01*
X008513Y012955D02*
X007535Y012955D01*
X007520Y013349D02*
X008528Y013349D01*
X008642Y013448D02*
X007406Y013448D01*
X007068Y013448D02*
X000300Y013448D01*
X000300Y013546D02*
X008963Y013546D01*
X009061Y013645D02*
X000300Y013645D01*
X000300Y013743D02*
X009160Y013743D01*
X009258Y013842D02*
X000300Y013842D01*
X000300Y013940D02*
X009357Y013940D01*
X009455Y014039D02*
X000300Y014039D01*
X000300Y014137D02*
X011284Y014137D01*
X011269Y013743D02*
X009665Y013743D01*
X009567Y013645D02*
X011362Y013645D01*
X010443Y010788D02*
X010290Y010788D01*
X010196Y010690D02*
X010537Y010690D01*
X009205Y010780D02*
X008811Y010386D01*
X008811Y009205D01*
X008142Y009205D01*
X007591Y008654D01*
X007270Y008523D02*
X006991Y008523D01*
X006892Y008621D02*
X007244Y008621D01*
X007244Y008720D02*
X006794Y008720D01*
X006695Y008818D02*
X007283Y008818D01*
X007363Y008917D02*
X006597Y008917D01*
X006498Y009015D02*
X007699Y009015D01*
X007798Y009114D02*
X007588Y009114D01*
X007734Y009212D02*
X007896Y009212D01*
X007358Y009114D02*
X006400Y009114D01*
X006301Y009212D02*
X007212Y009212D01*
X006387Y008621D02*
X004774Y008621D01*
X004755Y008576D02*
X004808Y008703D01*
X004808Y008841D01*
X004755Y008969D01*
X004657Y009066D01*
X004640Y009073D01*
X004640Y009163D01*
X004654Y009191D01*
X004640Y009234D01*
X004640Y009279D01*
X004617Y009301D01*
X004608Y009331D01*
X004567Y009352D01*
X004535Y009384D01*
X004504Y009384D01*
X002465Y010412D01*
X002465Y010455D01*
X002413Y010583D01*
X002315Y010680D01*
X002187Y010733D01*
X002050Y010733D01*
X001922Y010680D01*
X001824Y010583D01*
X001772Y010455D01*
X001772Y010317D01*
X001824Y010190D01*
X001922Y010092D01*
X002050Y010039D01*
X002187Y010039D01*
X002309Y010090D01*
X004282Y009095D01*
X004282Y009073D01*
X004265Y009066D01*
X004167Y008969D01*
X004114Y008841D01*
X004114Y008703D01*
X004167Y008576D01*
X004265Y008478D01*
X004392Y008425D01*
X004530Y008425D01*
X004657Y008478D01*
X004755Y008576D01*
X004702Y008523D02*
X006485Y008523D01*
X006584Y008424D02*
X000300Y008424D01*
X000300Y008326D02*
X006682Y008326D01*
X007089Y008424D02*
X007330Y008424D01*
X007188Y008326D02*
X007477Y008326D01*
X007382Y008227D02*
X007286Y008227D01*
X007315Y007945D02*
X005268Y009993D01*
X005268Y011764D01*
X004921Y011773D02*
X000300Y011773D01*
X000300Y011675D02*
X004930Y011675D01*
X004971Y011576D02*
X000300Y011576D01*
X000300Y011478D02*
X005064Y011478D01*
X005089Y011379D02*
X000300Y011379D01*
X000300Y011281D02*
X005089Y011281D01*
X005089Y011182D02*
X000300Y011182D01*
X000300Y011084D02*
X005089Y011084D01*
X005089Y010985D02*
X000300Y010985D01*
X000300Y010887D02*
X005089Y010887D01*
X005089Y010788D02*
X000300Y010788D01*
X000300Y010690D02*
X001944Y010690D01*
X001833Y010591D02*
X000300Y010591D01*
X000300Y010493D02*
X001787Y010493D01*
X001772Y010394D02*
X000300Y010394D01*
X000300Y010296D02*
X001781Y010296D01*
X001821Y010197D02*
X000300Y010197D01*
X000300Y010099D02*
X001916Y010099D01*
X002487Y010000D02*
X000300Y010000D01*
X000300Y009902D02*
X002683Y009902D01*
X002878Y009803D02*
X000300Y009803D01*
X000300Y009705D02*
X003074Y009705D01*
X003269Y009606D02*
X000300Y009606D01*
X000300Y009508D02*
X003464Y009508D01*
X003660Y009409D02*
X000300Y009409D01*
X000300Y009311D02*
X003855Y009311D01*
X004050Y009212D02*
X000300Y009212D01*
X000300Y009114D02*
X004246Y009114D01*
X004213Y009015D02*
X000300Y009015D01*
X000300Y008917D02*
X004145Y008917D01*
X004114Y008818D02*
X000300Y008818D01*
X000300Y008720D02*
X004114Y008720D01*
X004148Y008621D02*
X000300Y008621D01*
X000300Y008523D02*
X004220Y008523D01*
X004461Y008772D02*
X004461Y009205D01*
X002119Y010386D01*
X002450Y010493D02*
X005089Y010493D01*
X005089Y010591D02*
X002404Y010591D01*
X002293Y010690D02*
X005089Y010690D01*
X005089Y010394D02*
X002500Y010394D01*
X002695Y010296D02*
X005089Y010296D01*
X005089Y010197D02*
X002891Y010197D01*
X003086Y010099D02*
X005089Y010099D01*
X005089Y010000D02*
X003281Y010000D01*
X003477Y009902D02*
X005106Y009902D01*
X005205Y009803D02*
X003672Y009803D01*
X003868Y009705D02*
X005303Y009705D01*
X005402Y009606D02*
X004063Y009606D01*
X004258Y009508D02*
X005500Y009508D01*
X005599Y009409D02*
X004454Y009409D01*
X004614Y009311D02*
X005697Y009311D01*
X005796Y009212D02*
X004647Y009212D01*
X004640Y009114D02*
X005894Y009114D01*
X005993Y009015D02*
X004709Y009015D01*
X004777Y008917D02*
X006091Y008917D01*
X006190Y008818D02*
X004808Y008818D01*
X004808Y008720D02*
X006288Y008720D01*
X007315Y007945D02*
X007591Y007945D01*
X008418Y008024D02*
X009599Y009205D01*
X010780Y009205D01*
X010918Y009067D01*
X010918Y008733D01*
X011265Y008720D02*
X015009Y008720D01*
X015000Y008818D02*
X011258Y008818D01*
X011217Y008917D02*
X015015Y008917D01*
X015060Y009015D02*
X011126Y009015D01*
X010780Y009205D02*
X015347Y009205D01*
X015684Y008720D02*
X017706Y008720D01*
X017916Y009015D02*
X019781Y009015D01*
X020111Y009264D02*
X018260Y009264D01*
X018260Y009874D01*
X018398Y009874D01*
X018620Y009606D02*
X019035Y009606D01*
X019042Y009705D02*
X018703Y009705D01*
X018744Y009803D02*
X019083Y009803D01*
X019175Y009902D02*
X018745Y009902D01*
X018721Y010000D02*
X019204Y010000D01*
X019204Y010099D02*
X018664Y010099D01*
X018526Y010197D02*
X019204Y010197D01*
X019053Y009508D02*
X018439Y009508D01*
X018081Y009508D02*
X008990Y009508D01*
X008990Y009606D02*
X018081Y009606D01*
X018081Y009705D02*
X008990Y009705D01*
X008990Y009803D02*
X018052Y009803D01*
X018081Y009212D02*
X017719Y009212D01*
X017817Y009114D02*
X018158Y009114D01*
X019773Y008621D02*
X015643Y008621D01*
X015548Y008523D02*
X019871Y008523D01*
X019970Y008424D02*
X011079Y008424D01*
X011198Y008523D02*
X015145Y008523D01*
X015050Y008621D02*
X011247Y008621D01*
X010757Y008424D02*
X009070Y008424D01*
X008972Y008326D02*
X020068Y008326D01*
X020167Y008227D02*
X008873Y008227D01*
X008858Y008129D02*
X008775Y008129D01*
X008768Y008030D02*
X008676Y008030D01*
X008418Y008024D02*
X008418Y007847D01*
X009067Y007847D01*
X009414Y007833D02*
X009476Y007833D01*
X009436Y007735D02*
X009396Y007735D01*
X009429Y007636D02*
X009347Y007636D01*
X009411Y007538D02*
X009227Y007538D01*
X009312Y007439D02*
X008596Y007439D01*
X008596Y007341D02*
X009214Y007341D01*
X009115Y007242D02*
X008596Y007242D01*
X008577Y007144D02*
X009017Y007144D01*
X008918Y007045D02*
X008479Y007045D01*
X008380Y006947D02*
X008820Y006947D01*
X008721Y006848D02*
X008282Y006848D01*
X008183Y006750D02*
X008623Y006750D01*
X008524Y006651D02*
X007279Y006651D01*
X007237Y006449D02*
X006902Y006115D01*
X006902Y005898D01*
X007222Y005765D02*
X009006Y005765D01*
X009026Y005666D02*
X007160Y005666D01*
X007010Y005568D02*
X009026Y005568D01*
X009026Y005469D02*
X007086Y005469D01*
X007192Y005371D02*
X009026Y005371D01*
X009026Y005272D02*
X007235Y005272D01*
X007249Y005174D02*
X009021Y005174D01*
X008915Y005075D02*
X007238Y005075D01*
X007197Y004977D02*
X008872Y004977D01*
X008858Y004878D02*
X007101Y004878D01*
X007081Y004780D02*
X008869Y004780D01*
X008910Y004681D02*
X007081Y004681D01*
X007081Y004583D02*
X009006Y004583D01*
X009205Y004874D02*
X009205Y006056D01*
X009552Y006060D02*
X011319Y006060D01*
X011221Y005962D02*
X009542Y005962D01*
X009501Y005863D02*
X011122Y005863D01*
X011024Y005765D02*
X009405Y005765D01*
X009384Y005666D02*
X010925Y005666D01*
X010827Y005568D02*
X009384Y005568D01*
X009384Y005469D02*
X010728Y005469D01*
X010630Y005371D02*
X009384Y005371D01*
X009481Y005150D02*
X009205Y004874D01*
X009552Y004878D02*
X012963Y004878D01*
X012963Y004780D02*
X009541Y004780D01*
X009500Y004681D02*
X012963Y004681D01*
X012963Y004583D02*
X009404Y004583D01*
X009481Y005150D02*
X010662Y005150D01*
X012355Y006843D01*
X013713Y006843D01*
X014806Y005750D01*
X014304Y005130D01*
X014087Y005130D01*
X013615Y005347D02*
X013142Y005347D01*
X013142Y004481D01*
X013654Y003969D01*
X015780Y003969D01*
X016863Y005052D01*
X022020Y005052D01*
X022591Y004481D01*
X024697Y004481D01*
X025977Y005760D01*
X025977Y008260D01*
X026298Y008129D02*
X030720Y008129D01*
X030720Y008227D02*
X026324Y008227D01*
X026324Y008326D02*
X030720Y008326D01*
X030720Y008424D02*
X026284Y008424D01*
X026205Y008523D02*
X030720Y008523D01*
X030720Y008621D02*
X025384Y008621D01*
X025398Y008523D02*
X025749Y008523D01*
X025669Y008424D02*
X025389Y008424D01*
X025604Y008326D02*
X025630Y008326D01*
X025426Y008024D02*
X024894Y008024D01*
X024835Y008162D01*
X022591Y008162D01*
X022040Y007807D02*
X024166Y007807D01*
X025052Y008516D02*
X021666Y008516D01*
X021410Y008260D01*
X021410Y007630D01*
X022197Y006843D01*
X022197Y006056D01*
X021804Y005662D01*
X014894Y005662D01*
X014806Y005750D01*
X013142Y005347D02*
X013142Y006430D01*
X012818Y006553D02*
X012317Y006553D01*
X012416Y006651D02*
X012873Y006651D01*
X012795Y006454D02*
X012219Y006454D01*
X012120Y006356D02*
X012797Y006356D01*
X012838Y006257D02*
X012022Y006257D01*
X011923Y006159D02*
X012923Y006159D01*
X012963Y006060D02*
X011825Y006060D01*
X011726Y005962D02*
X012963Y005962D01*
X012963Y005863D02*
X011628Y005863D01*
X011529Y005765D02*
X012963Y005765D01*
X012963Y005666D02*
X011431Y005666D01*
X011332Y005568D02*
X012963Y005568D01*
X012963Y005469D02*
X011234Y005469D01*
X011135Y005371D02*
X012963Y005371D01*
X012963Y005272D02*
X011037Y005272D01*
X010938Y005174D02*
X012963Y005174D01*
X012963Y005075D02*
X010840Y005075D01*
X010741Y004977D02*
X012963Y004977D01*
X012963Y004484D02*
X007081Y004484D01*
X007000Y004386D02*
X012985Y004386D01*
X013083Y004287D02*
X006902Y004287D01*
X006803Y004189D02*
X013182Y004189D01*
X013280Y004090D02*
X006705Y004090D01*
X006606Y003992D02*
X013379Y003992D01*
X013477Y003893D02*
X006508Y003893D01*
X006409Y003795D02*
X013576Y003795D01*
X015209Y002611D02*
X015504Y002906D01*
X015701Y003300D01*
X015945Y003302D02*
X005917Y003302D01*
X006015Y003401D02*
X015958Y003401D01*
X016001Y003499D02*
X006114Y003499D01*
X006212Y003598D02*
X016105Y003598D01*
X015858Y003795D02*
X016959Y003795D01*
X016959Y003893D02*
X015957Y003893D01*
X016055Y003992D02*
X016901Y003992D01*
X016827Y004090D02*
X016154Y004090D01*
X016252Y004189D02*
X016791Y004189D01*
X016791Y004287D02*
X016351Y004287D01*
X016449Y004386D02*
X016821Y004386D01*
X016887Y004484D02*
X016548Y004484D01*
X016646Y004583D02*
X017048Y004583D01*
X017228Y004583D02*
X022236Y004583D01*
X022138Y004681D02*
X016745Y004681D01*
X016843Y004780D02*
X022039Y004780D01*
X022335Y004484D02*
X017389Y004484D01*
X017455Y004386D02*
X022433Y004386D01*
X022985Y004874D02*
X022906Y004953D01*
X022906Y007453D01*
X022019Y006750D02*
X020998Y006750D01*
X020998Y006848D02*
X021939Y006848D01*
X021841Y006947D02*
X021059Y006947D01*
X021132Y007045D02*
X021742Y007045D01*
X021644Y007144D02*
X021166Y007144D01*
X021166Y007242D02*
X021545Y007242D01*
X021447Y007341D02*
X021135Y007341D01*
X021068Y007439D02*
X021348Y007439D01*
X021250Y007538D02*
X020998Y007538D01*
X020998Y007636D02*
X021231Y007636D01*
X021231Y007735D02*
X020998Y007735D01*
X020998Y007833D02*
X021231Y007833D01*
X021231Y007932D02*
X020968Y007932D01*
X020869Y008030D02*
X021231Y008030D01*
X021231Y008129D02*
X020771Y008129D01*
X020672Y008227D02*
X021231Y008227D01*
X021231Y008326D02*
X020574Y008326D01*
X020475Y008424D02*
X021321Y008424D01*
X021419Y008523D02*
X020377Y008523D01*
X020265Y008129D02*
X009276Y008129D01*
X009367Y008030D02*
X020364Y008030D01*
X020462Y007932D02*
X009985Y007932D01*
X010076Y007833D02*
X020561Y007833D01*
X020641Y007735D02*
X010116Y007735D01*
X009567Y007932D02*
X009408Y007932D01*
X008908Y007538D02*
X008596Y007538D01*
X008596Y007636D02*
X008788Y007636D01*
X008418Y007847D02*
X008418Y007237D01*
X008024Y006843D01*
X007099Y006843D01*
X007040Y006902D02*
X006941Y006804D01*
X007297Y006257D02*
X008916Y006257D01*
X008872Y006159D02*
X007199Y006159D01*
X007210Y006060D02*
X008858Y006060D01*
X008869Y005962D02*
X007249Y005962D01*
X007249Y005863D02*
X008909Y005863D01*
X009538Y006159D02*
X011418Y006159D01*
X011516Y006257D02*
X009494Y006257D01*
X009387Y006356D02*
X011615Y006356D01*
X011713Y006454D02*
X008833Y006454D01*
X008931Y006553D02*
X011812Y006553D01*
X011910Y006651D02*
X009030Y006651D01*
X009128Y006750D02*
X012009Y006750D01*
X012107Y006848D02*
X009227Y006848D01*
X009325Y006947D02*
X012206Y006947D01*
X010637Y008523D02*
X009169Y008523D01*
X009267Y008621D02*
X010589Y008621D01*
X010571Y008720D02*
X009366Y008720D01*
X009464Y008818D02*
X010578Y008818D01*
X010618Y008917D02*
X009563Y008917D01*
X009661Y009015D02*
X010710Y009015D01*
X009023Y006356D02*
X008734Y006356D01*
X006794Y005568D02*
X006403Y005568D01*
X006304Y005666D02*
X006643Y005666D01*
X006582Y005765D02*
X006234Y005765D01*
X006501Y005469D02*
X006718Y005469D01*
X006612Y005371D02*
X006600Y005371D01*
X006311Y003696D02*
X016959Y003696D01*
X016959Y003598D02*
X016479Y003598D01*
X016583Y003499D02*
X017021Y003499D01*
X017119Y003401D02*
X016625Y003401D01*
X016639Y003302D02*
X017218Y003302D01*
X017316Y003204D02*
X016641Y003204D01*
X016739Y003105D02*
X017415Y003105D01*
X017513Y003007D02*
X016838Y003007D01*
X016936Y002908D02*
X017612Y002908D01*
X017710Y002810D02*
X017035Y002810D01*
X017133Y002711D02*
X017966Y002711D01*
X018063Y002613D02*
X017232Y002613D01*
X017158Y002433D02*
X016292Y003300D01*
X015956Y003204D02*
X005818Y003204D01*
X005720Y003105D02*
X015997Y003105D01*
X016094Y003007D02*
X005621Y003007D01*
X005523Y002908D02*
X010351Y002908D01*
X010262Y002810D02*
X005424Y002810D01*
X005446Y001628D02*
X005573Y001575D01*
X005711Y001575D01*
X005839Y001628D01*
X005936Y001725D01*
X005944Y001743D01*
X006817Y001743D01*
X006824Y001725D01*
X006922Y001628D01*
X007050Y001575D01*
X007187Y001575D01*
X007315Y001628D01*
X007413Y001725D01*
X007465Y001853D01*
X007465Y001991D01*
X007413Y002118D01*
X007394Y002137D01*
X008422Y002137D01*
X008649Y001910D01*
X008642Y001825D02*
X007454Y001825D01*
X007413Y001726D02*
X008653Y001726D01*
X008694Y001628D02*
X007315Y001628D01*
X006922Y001628D02*
X005838Y001628D01*
X005937Y001726D02*
X006824Y001726D01*
X007453Y002022D02*
X008538Y002022D01*
X008439Y002120D02*
X007411Y002120D01*
X008649Y002416D02*
X009151Y002416D01*
X009052Y002317D02*
X008748Y002317D01*
X008846Y002219D02*
X008954Y002219D01*
X008793Y001529D02*
X000300Y001529D01*
X000300Y001431D02*
X030720Y001431D01*
X030720Y001529D02*
X009185Y001529D01*
X010910Y002613D02*
X016726Y002613D01*
X016628Y002711D02*
X010905Y002711D01*
X010865Y002810D02*
X016529Y002810D01*
X016431Y002908D02*
X010776Y002908D01*
X011548Y003004D02*
X011587Y003024D01*
X011607Y003004D01*
X017138Y003634D02*
X017867Y002906D01*
X018260Y002906D01*
X018607Y002908D02*
X019016Y002908D01*
X019016Y002810D02*
X018596Y002810D01*
X018555Y002711D02*
X018974Y002711D01*
X018875Y002613D02*
X018457Y002613D01*
X018594Y003007D02*
X019053Y003007D01*
X019130Y003105D02*
X018552Y003105D01*
X018448Y003204D02*
X030720Y003204D01*
X030720Y003302D02*
X017723Y003302D01*
X017625Y003401D02*
X030720Y003401D01*
X030720Y003499D02*
X017526Y003499D01*
X017428Y003598D02*
X030720Y003598D01*
X030720Y003696D02*
X017329Y003696D01*
X017317Y003795D02*
X030720Y003795D01*
X030720Y003893D02*
X017317Y003893D01*
X017376Y003992D02*
X030720Y003992D01*
X030720Y004090D02*
X017450Y004090D01*
X017485Y004189D02*
X030720Y004189D01*
X030720Y004287D02*
X017485Y004287D01*
X017138Y004244D02*
X017138Y003634D01*
X017822Y003204D02*
X018072Y003204D01*
X017969Y003105D02*
X017920Y003105D01*
X018260Y002040D02*
X019048Y002040D01*
X018772Y001825D02*
X018535Y001825D01*
X018409Y001726D02*
X018899Y001726D01*
X019709Y002810D02*
X030720Y002810D01*
X030720Y002908D02*
X019709Y002908D01*
X019672Y003007D02*
X030720Y003007D01*
X030720Y003105D02*
X019595Y003105D01*
X021123Y005863D02*
X021752Y005863D01*
X021850Y005962D02*
X021164Y005962D01*
X021166Y006060D02*
X021949Y006060D01*
X022019Y006159D02*
X021144Y006159D01*
X021089Y006257D02*
X022019Y006257D01*
X022019Y006356D02*
X020998Y006356D01*
X020998Y006454D02*
X022019Y006454D01*
X022019Y006553D02*
X020998Y006553D01*
X020998Y006651D02*
X022019Y006651D01*
X020550Y006257D02*
X019061Y006257D01*
X021487Y008590D02*
X021487Y008590D01*
X022005Y008917D02*
X022154Y008917D01*
X022512Y008811D02*
X024638Y008811D01*
X025819Y009993D01*
X026922Y009993D01*
X027709Y010780D01*
X027709Y011567D01*
X027315Y011961D01*
X027315Y012020D01*
X027560Y012266D02*
X030720Y012266D01*
X030720Y012364D02*
X027391Y012364D01*
X027630Y012167D02*
X030720Y012167D01*
X030720Y012069D02*
X027662Y012069D01*
X027662Y011970D02*
X030720Y011970D01*
X030720Y011872D02*
X027658Y011872D01*
X027756Y011773D02*
X030720Y011773D01*
X030720Y011675D02*
X027855Y011675D01*
X027888Y011576D02*
X030720Y011576D01*
X030720Y011478D02*
X027888Y011478D01*
X027888Y011379D02*
X030720Y011379D01*
X030720Y011281D02*
X027888Y011281D01*
X027888Y011182D02*
X030720Y011182D01*
X030720Y011084D02*
X027888Y011084D01*
X027888Y010985D02*
X030720Y010985D01*
X030720Y010887D02*
X027888Y010887D01*
X027888Y010788D02*
X030720Y010788D01*
X030720Y010690D02*
X027871Y010690D01*
X027773Y010591D02*
X030720Y010591D01*
X030720Y010493D02*
X027674Y010493D01*
X027576Y010394D02*
X030720Y010394D01*
X030720Y010296D02*
X027477Y010296D01*
X027379Y010197D02*
X030720Y010197D01*
X030720Y010099D02*
X027280Y010099D01*
X027182Y010000D02*
X030720Y010000D01*
X030720Y009902D02*
X027083Y009902D01*
X026134Y010386D02*
X025918Y010386D01*
X025771Y010493D02*
X024876Y010493D01*
X024917Y010591D02*
X025956Y010591D01*
X025956Y010690D02*
X024926Y010690D01*
X024910Y010788D02*
X025956Y010788D01*
X025956Y010887D02*
X024865Y010887D01*
X024753Y010985D02*
X025956Y010985D01*
X025956Y011084D02*
X024174Y011084D01*
X024075Y011182D02*
X025956Y011182D01*
X025956Y011281D02*
X023990Y011281D01*
X023990Y011379D02*
X025956Y011379D01*
X025956Y011478D02*
X023990Y011478D01*
X023990Y011576D02*
X025956Y011576D01*
X025956Y011675D02*
X023990Y011675D01*
X023990Y011773D02*
X025956Y011773D01*
X025956Y011872D02*
X023990Y011872D01*
X023990Y011970D02*
X025956Y011970D01*
X025956Y012069D02*
X023990Y012069D01*
X023990Y012167D02*
X025956Y012167D01*
X025956Y012266D02*
X023990Y012266D01*
X023990Y012364D02*
X025956Y012364D01*
X025989Y012463D02*
X023990Y012463D01*
X023990Y012561D02*
X026088Y012561D01*
X026186Y012660D02*
X023990Y012660D01*
X023990Y012758D02*
X026285Y012758D01*
X026383Y012857D02*
X023917Y012857D01*
X023633Y012463D02*
X023268Y012463D01*
X024272Y010985D02*
X024406Y010985D01*
X024782Y010394D02*
X025673Y010394D01*
X025574Y010296D02*
X025069Y010296D01*
X025180Y010197D02*
X025476Y010197D01*
X025377Y010099D02*
X025226Y010099D01*
X025241Y010000D02*
X025279Y010000D01*
X025686Y009606D02*
X030720Y009606D01*
X030720Y009508D02*
X025587Y009508D01*
X025489Y009409D02*
X030720Y009409D01*
X030720Y009311D02*
X025390Y009311D01*
X025292Y009212D02*
X030720Y009212D01*
X030720Y009114D02*
X025193Y009114D01*
X025095Y009015D02*
X030720Y009015D01*
X030720Y008917D02*
X024996Y008917D01*
X025229Y008818D02*
X030720Y008818D01*
X030720Y008720D02*
X025339Y008720D01*
X026237Y008030D02*
X030720Y008030D01*
X030720Y007932D02*
X026156Y007932D01*
X026156Y007833D02*
X030720Y007833D01*
X030720Y007735D02*
X026156Y007735D01*
X026156Y007636D02*
X030720Y007636D01*
X030720Y007538D02*
X026156Y007538D01*
X026156Y007439D02*
X030720Y007439D01*
X030720Y007341D02*
X026156Y007341D01*
X026156Y007242D02*
X030720Y007242D01*
X030720Y007144D02*
X026156Y007144D01*
X026156Y007045D02*
X030720Y007045D01*
X030720Y006947D02*
X026156Y006947D01*
X026156Y006848D02*
X030720Y006848D01*
X030720Y006750D02*
X026156Y006750D01*
X026156Y006651D02*
X030720Y006651D01*
X030720Y006553D02*
X026156Y006553D01*
X026156Y006454D02*
X030720Y006454D01*
X030720Y006356D02*
X026156Y006356D01*
X026156Y006257D02*
X030720Y006257D01*
X030720Y006159D02*
X026156Y006159D01*
X026156Y006060D02*
X030720Y006060D01*
X030720Y005962D02*
X026156Y005962D01*
X026156Y005863D02*
X030720Y005863D01*
X030720Y005765D02*
X026156Y005765D01*
X026135Y005666D02*
X030720Y005666D01*
X030720Y005568D02*
X026037Y005568D01*
X025938Y005469D02*
X030720Y005469D01*
X030720Y005371D02*
X025840Y005371D01*
X025741Y005272D02*
X030720Y005272D01*
X030720Y005174D02*
X025643Y005174D01*
X025544Y005075D02*
X030720Y005075D01*
X030720Y004977D02*
X025446Y004977D01*
X025347Y004878D02*
X030720Y004878D01*
X030720Y004780D02*
X025249Y004780D01*
X025150Y004681D02*
X030720Y004681D01*
X030720Y004583D02*
X025052Y004583D01*
X024953Y004484D02*
X030720Y004484D01*
X030720Y004386D02*
X024855Y004386D01*
X024953Y005248D02*
X024953Y005859D01*
X025406Y006311D01*
X021472Y009311D02*
X020289Y009311D01*
X020289Y009409D02*
X020743Y009409D01*
X020974Y009409D02*
X021517Y009409D01*
X021627Y009508D02*
X021120Y009508D01*
X021037Y010197D02*
X024608Y010197D01*
X024719Y010296D02*
X021037Y010296D01*
X025784Y009705D02*
X030720Y009705D01*
X030720Y009803D02*
X025883Y009803D01*
X026134Y010386D02*
X026134Y012355D01*
X026528Y012748D01*
X026981Y012748D01*
X026683Y012561D02*
X026593Y012561D01*
X026495Y012463D02*
X026776Y012463D01*
X023782Y014313D02*
X023772Y014323D01*
X023939Y014630D02*
X025967Y014630D01*
X028361Y016009D02*
X030720Y016009D01*
X030720Y016107D02*
X028402Y016107D01*
X028422Y016206D02*
X030720Y016206D01*
X030720Y016304D02*
X028422Y016304D01*
X028390Y016403D02*
X030720Y016403D01*
X030720Y016501D02*
X028338Y016501D01*
X028239Y016600D02*
X030720Y016600D01*
X030720Y016698D02*
X013390Y016698D01*
X017253Y016895D02*
X017693Y016895D01*
X017602Y016994D02*
X017351Y016994D01*
X017396Y017092D02*
X017561Y017092D01*
X017538Y017191D02*
X017422Y017191D01*
X017422Y017289D02*
X017538Y017289D01*
X017561Y017388D02*
X017396Y017388D01*
X017353Y017486D02*
X017602Y017486D01*
X017692Y017585D02*
X017254Y017585D01*
X018301Y017585D02*
X018739Y017585D01*
X018640Y017486D02*
X018391Y017486D01*
X018432Y017388D02*
X018597Y017388D01*
X018571Y017289D02*
X018455Y017289D01*
X018455Y017191D02*
X018571Y017191D01*
X018597Y017092D02*
X018431Y017092D01*
X018391Y016994D02*
X018642Y016994D01*
X018740Y016895D02*
X018300Y016895D01*
X006953Y013349D02*
X000300Y013349D01*
X000300Y013251D02*
X006906Y013251D01*
X004983Y011970D02*
X000300Y011970D01*
X000300Y011872D02*
X004937Y011872D01*
X003759Y016797D02*
X000300Y016797D01*
X000300Y016895D02*
X003705Y016895D01*
X003705Y016994D02*
X000300Y016994D01*
X000300Y017092D02*
X003705Y017092D01*
X003705Y017191D02*
X000300Y017191D01*
X000300Y017289D02*
X003705Y017289D01*
X003705Y017388D02*
X000300Y017388D01*
X000300Y017486D02*
X003705Y017486D01*
X003738Y017585D02*
X000300Y017585D01*
X000300Y001332D02*
X030720Y001332D01*
X030720Y001234D02*
X000300Y001234D01*
X000300Y001135D02*
X030720Y001135D01*
X030720Y001037D02*
X000300Y001037D01*
X000300Y000938D02*
X030720Y000938D01*
X030720Y000840D02*
X000300Y000840D01*
X000300Y000741D02*
X030720Y000741D01*
X030720Y000643D02*
X000300Y000643D01*
X000300Y000544D02*
X030720Y000544D01*
X030720Y000446D02*
X000300Y000446D01*
X000300Y000347D02*
X030720Y000347D01*
D15*
X022985Y004874D03*
X024953Y005248D03*
X025406Y006311D03*
X024166Y007807D03*
X025052Y008516D03*
X025426Y008024D03*
X025977Y008260D03*
X024087Y009599D03*
X024894Y009993D03*
X024579Y010681D03*
X022670Y009205D03*
X021804Y009205D03*
X020859Y009737D03*
X020111Y009756D03*
X019382Y009619D03*
X018398Y009874D03*
X017099Y010327D03*
X015898Y011134D03*
X015957Y012020D03*
X016036Y012591D03*
X015111Y013930D03*
X012670Y012985D03*
X011613Y012577D03*
X011567Y013930D03*
X012552Y015681D03*
X008418Y015111D03*
X008418Y017079D03*
X004087Y014638D03*
X003300Y014638D03*
X007237Y013142D03*
X008811Y013142D03*
X009993Y010977D03*
X010741Y010977D03*
X009205Y010780D03*
X008024Y010386D03*
X007473Y009441D03*
X007591Y008654D03*
X007591Y007945D03*
X006193Y007158D03*
X005426Y007158D03*
X004087Y006843D03*
X002119Y007630D03*
X004461Y008772D03*
X002119Y010386D03*
X005268Y011764D03*
X010918Y008733D03*
X009776Y007650D03*
X009067Y007847D03*
X007040Y006902D03*
X006902Y005898D03*
X006902Y005170D03*
X009205Y004874D03*
X009205Y006056D03*
X013142Y006430D03*
X013615Y005347D03*
X014087Y005130D03*
X015701Y003300D03*
X016292Y003300D03*
X015209Y002611D03*
X017138Y004244D03*
X018260Y002906D03*
X018260Y002040D03*
X019048Y002040D03*
X019363Y002847D03*
X018811Y006016D03*
X020819Y006036D03*
X020819Y007197D03*
X022040Y007807D03*
X022591Y008162D03*
X022906Y007453D03*
X027315Y012020D03*
X026981Y012748D03*
X026134Y013536D03*
X026134Y014323D03*
X023772Y014323D03*
X023024Y012709D03*
X020859Y013044D03*
X018457Y013142D03*
X013851Y010583D03*
X015347Y008811D03*
X011548Y003004D03*
X010563Y002630D03*
X008989Y001823D03*
X007119Y001922D03*
X005642Y001922D03*
X002119Y002315D03*
D16*
X008418Y015111D02*
X008418Y017079D01*
X023772Y014323D02*
X026134Y014323D01*
M02*
