G75*
G70*
%OFA0B0*%
%FSLAX24Y24*%
%IPPOS*%
%LPD*%
%AMOC8*
5,1,8,0,0,1.08239X$1,22.5*
%
%ADD10C,0.0600*%
%ADD11R,0.0594X0.0594*%
%ADD12C,0.0660*%
%ADD13C,0.0594*%
%ADD14C,0.0436*%
D10*
X010961Y016464D02*
X010961Y017064D01*
X011961Y017064D02*
X011961Y016464D01*
X012961Y016464D02*
X012961Y017064D01*
D11*
X015996Y016241D03*
X004130Y017201D03*
D12*
X015996Y017241D03*
X017996Y017241D03*
D13*
X016996Y017241D03*
X016996Y016241D03*
X017996Y016241D03*
X018996Y016241D03*
X019996Y016241D03*
X020996Y016241D03*
X021996Y016241D03*
X022996Y016241D03*
X023996Y016241D03*
X024996Y016241D03*
X025996Y016241D03*
X026996Y016241D03*
X027996Y016241D03*
X027996Y017241D03*
X026996Y017241D03*
X025996Y017241D03*
X024996Y017241D03*
X023996Y017241D03*
X022996Y017241D03*
X021996Y017241D03*
X020996Y017241D03*
X019996Y017241D03*
X018996Y017241D03*
X007130Y017201D03*
X006130Y017201D03*
X005130Y017201D03*
X005130Y016201D03*
X004130Y016201D03*
X006130Y016201D03*
X007130Y016201D03*
D14*
X002119Y002315D03*
X005642Y001922D03*
X007119Y001922D03*
X008989Y001823D03*
X010563Y002630D03*
X011548Y003004D03*
X009205Y004874D03*
X009205Y006056D03*
X007040Y006902D03*
X006193Y007158D03*
X005426Y007158D03*
X004087Y006843D03*
X002119Y007630D03*
X004461Y008772D03*
X002119Y010386D03*
X005268Y011764D03*
X007237Y013142D03*
X008811Y013142D03*
X011613Y012577D03*
X012670Y012985D03*
X011567Y013930D03*
X012552Y015681D03*
X015111Y013930D03*
X016036Y012591D03*
X015957Y012020D03*
X015898Y011134D03*
X017099Y010327D03*
X018398Y009874D03*
X019382Y009619D03*
X020111Y009756D03*
X020859Y009737D03*
X021804Y009205D03*
X022670Y009205D03*
X024087Y009599D03*
X024894Y009993D03*
X024579Y010681D03*
X027315Y012020D03*
X026981Y012748D03*
X026134Y013536D03*
X026134Y014323D03*
X023772Y014323D03*
X023024Y012709D03*
X020859Y013044D03*
X018457Y013142D03*
X013851Y010583D03*
X015347Y008811D03*
X013142Y006430D03*
X013615Y005347D03*
X014087Y005130D03*
X015701Y003300D03*
X016292Y003300D03*
X015209Y002611D03*
X017138Y004244D03*
X018260Y002906D03*
X018260Y002040D03*
X019048Y002040D03*
X019363Y002847D03*
X022985Y004874D03*
X024953Y005248D03*
X025406Y006311D03*
X024166Y007807D03*
X025052Y008516D03*
X025426Y008024D03*
X025977Y008260D03*
X022906Y007453D03*
X022591Y008162D03*
X022040Y007807D03*
X020819Y007197D03*
X020819Y006036D03*
X018811Y006016D03*
X010918Y008733D03*
X009776Y007650D03*
X009067Y007847D03*
X007591Y007945D03*
X007591Y008654D03*
X007473Y009441D03*
X008024Y010386D03*
X009205Y010780D03*
X009993Y010977D03*
X010741Y010977D03*
X008418Y015111D03*
X008418Y017079D03*
X004087Y014638D03*
X003300Y014638D03*
X006902Y005898D03*
X006902Y005170D03*
M02*
